<svg width="259" height="178" viewBox="0 0 259 178" fill="none" xmlns="http://www.w3.org/2000/svg">
<path d="M161.425 39C145.545 16.0409 119.029 1 89 1C40.3989 1 1 40.3989 1 89C1 137.601 40.3989 177 89 177C119.029 177 145.545 161.959 161.425 139" stroke="#260312"/>
<path d="M57.805 88.3215H65.2356V107.005C65.2356 109.755 68.4099 111.053 70.0932 108.977L88.2972 86.6608C89.8843 84.7146 88.6098 81.6786 86.2051 81.6786H78.7744V62.9952C78.7744 60.2446 75.6001 58.9471 73.9168 61.023L55.7129 83.3393C54.1498 85.2855 55.4243 88.3215 57.805 88.3215Z" stroke="#0F5ABD" stroke-width="7" stroke-miterlimit="10" stroke-linecap="round" stroke-linejoin="round"/>
<path opacity="0.4" d="M55.8333 64.2408H39" stroke="#0F5ABD" stroke-width="7" stroke-miterlimit="10" stroke-linecap="round" stroke-linejoin="round"/>
<path opacity="0.4" d="M53.4285 105.759H39" stroke="#0F5ABD" stroke-width="7" stroke-miterlimit="10" stroke-linecap="round" stroke-linejoin="round"/>
<path opacity="0.4" d="M46.2143 85H39" stroke="#0F5ABD" stroke-width="7" stroke-miterlimit="10" stroke-linecap="round" stroke-linejoin="round"/>
<path d="M99.4062 97V74.1094H112.828L112.359 76.5312H102.469V83.8438H111.281L110.812 86.2656H102.469V97H99.4062ZM117.125 71.9688H120.094V97H117.125V71.9688ZM134.531 94.5312C134.271 94.75 133.953 95.0208 133.578 95.3438C133.214 95.6562 132.797 95.9583 132.328 96.25C131.87 96.5417 131.365 96.7917 130.812 97C130.271 97.2083 129.693 97.3125 129.078 97.3125C128.526 97.3125 127.984 97.2135 127.453 97.0156C126.932 96.8281 126.469 96.5469 126.062 96.1719C125.656 95.7865 125.328 95.3125 125.078 94.75C124.839 94.1875 124.719 93.5417 124.719 92.8125C124.719 92.3646 124.771 91.9115 124.875 91.4531C124.99 90.9948 125.177 90.5573 125.438 90.1406C125.698 89.7135 126.036 89.3177 126.453 88.9531C126.88 88.5781 127.401 88.2552 128.016 87.9844C128.641 87.7031 129.375 87.4844 130.219 87.3281C131.062 87.1719 132.031 87.0938 133.125 87.0938H134.531V85.6562C134.531 85.1771 134.448 84.7448 134.281 84.3594C134.115 83.974 133.88 83.6458 133.578 83.375C133.286 83.0938 132.932 82.8802 132.516 82.7344C132.109 82.5781 131.656 82.5 131.156 82.5C130.781 82.5 130.38 82.5417 129.953 82.625C129.536 82.7083 129.115 82.8281 128.688 82.9844C128.271 83.1406 127.87 83.3229 127.484 83.5312C127.099 83.7396 126.76 83.9688 126.469 84.2188L126.188 84.0625L125.562 81.7812C126.167 81.4479 126.75 81.1771 127.312 80.9688C127.875 80.75 128.411 80.5781 128.922 80.4531C129.443 80.3281 129.938 80.2448 130.406 80.2031C130.875 80.151 131.323 80.125 131.75 80.125C133.698 80.125 135.141 80.5312 136.078 81.3438C137.026 82.1458 137.5 83.3542 137.5 84.9688V93.125C137.5 93.2604 137.51 93.4271 137.531 93.625C137.552 93.8125 137.599 93.9948 137.672 94.1719C137.755 94.349 137.87 94.5 138.016 94.625C138.172 94.75 138.38 94.8125 138.641 94.8125C138.786 94.8125 138.979 94.7917 139.219 94.75C139.458 94.6979 139.698 94.6146 139.938 94.5V96.1562C139.438 96.5 138.932 96.7812 138.422 97C137.922 97.2083 137.438 97.3125 136.969 97.3125C136.542 97.3125 136.188 97.224 135.906 97.0469C135.635 96.8802 135.406 96.6615 135.219 96.3906C135.042 96.1198 134.901 95.8229 134.797 95.5C134.693 95.1667 134.604 94.8438 134.531 94.5312ZM134.531 88.9062H133.344C132.125 88.9062 131.151 88.9948 130.422 89.1719C129.703 89.3385 129.151 89.5677 128.766 89.8594C128.391 90.1406 128.141 90.4688 128.016 90.8438C127.901 91.2188 127.844 91.6094 127.844 92.0156C127.844 92.4531 127.906 92.8438 128.031 93.1875C128.156 93.5312 128.328 93.8281 128.547 94.0781C128.776 94.3177 129.047 94.5 129.359 94.625C129.672 94.75 130.01 94.8125 130.375 94.8125C130.656 94.8125 130.943 94.7812 131.234 94.7188C131.536 94.6458 131.854 94.526 132.188 94.3594C132.531 94.1823 132.891 93.9479 133.266 93.6562C133.651 93.3646 134.073 92.9896 134.531 92.5312V88.9062ZM143.312 93.75L143.594 93.5625C143.99 93.7812 144.406 93.9792 144.844 94.1562C145.281 94.3229 145.714 94.4635 146.141 94.5781C146.568 94.6927 146.984 94.7812 147.391 94.8438C147.807 94.9062 148.193 94.9375 148.547 94.9375C149.036 94.9375 149.484 94.8802 149.891 94.7656C150.297 94.651 150.641 94.4896 150.922 94.2812C151.214 94.0729 151.438 93.8229 151.594 93.5312C151.76 93.2396 151.844 92.9167 151.844 92.5625C151.844 92.1146 151.719 91.7448 151.469 91.4531C151.219 91.151 150.891 90.8958 150.484 90.6875C150.078 90.4688 149.615 90.2812 149.094 90.125C148.573 89.9688 148.042 89.8073 147.5 89.6406C146.958 89.474 146.427 89.2865 145.906 89.0781C145.385 88.8698 144.922 88.6094 144.516 88.2969C144.109 87.974 143.781 87.5885 143.531 87.1406C143.281 86.6823 143.156 86.125 143.156 85.4688C143.156 84.7396 143.318 84.0521 143.641 83.4062C143.964 82.75 144.417 82.1823 145 81.7031C145.583 81.2135 146.281 80.8281 147.094 80.5469C147.917 80.2656 148.828 80.125 149.828 80.125C150.068 80.125 150.354 80.1354 150.688 80.1562C151.021 80.1771 151.375 80.2135 151.75 80.2656C152.125 80.3073 152.505 80.3698 152.891 80.4531C153.286 80.526 153.667 80.6198 154.031 80.7344L153.406 83.1719L153.031 83.3906C152.74 83.2344 152.417 83.099 152.062 82.9844C151.719 82.8698 151.365 82.7812 151 82.7188C150.646 82.6458 150.297 82.5938 149.953 82.5625C149.609 82.5208 149.307 82.5 149.047 82.5C148.568 82.5 148.13 82.5521 147.734 82.6562C147.349 82.7604 147.016 82.9115 146.734 83.1094C146.453 83.2969 146.234 83.5312 146.078 83.8125C145.922 84.0833 145.844 84.3958 145.844 84.75C145.844 85.2083 145.969 85.5885 146.219 85.8906C146.469 86.1927 146.802 86.4531 147.219 86.6719C147.635 86.8802 148.104 87.0625 148.625 87.2188C149.156 87.375 149.698 87.5365 150.25 87.7031C150.802 87.8698 151.339 88.0573 151.859 88.2656C152.391 88.474 152.865 88.7396 153.281 89.0625C153.698 89.3854 154.031 89.7812 154.281 90.25C154.531 90.7083 154.656 91.2708 154.656 91.9375C154.656 92.7188 154.479 93.4375 154.125 94.0938C153.781 94.75 153.302 95.3177 152.688 95.7969C152.083 96.276 151.37 96.651 150.547 96.9219C149.734 97.1823 148.859 97.3125 147.922 97.3125C147.12 97.3125 146.26 97.2188 145.344 97.0312C144.438 96.8438 143.552 96.5833 142.688 96.25L143.312 93.75ZM159.125 71.9688H162.094V83.125C162.469 82.7917 162.885 82.4479 163.344 82.0938C163.802 81.7396 164.297 81.4167 164.828 81.125C165.359 80.8333 165.917 80.5938 166.5 80.4062C167.083 80.2188 167.688 80.125 168.312 80.125C169.062 80.125 169.74 80.2708 170.344 80.5625C170.958 80.8438 171.484 81.2448 171.922 81.7656C172.359 82.276 172.693 82.8958 172.922 83.625C173.161 84.3438 173.281 85.1458 173.281 86.0312V97H170.312V86.2812C170.312 85.6771 170.224 85.1458 170.047 84.6875C169.88 84.2292 169.646 83.849 169.344 83.5469C169.052 83.2344 168.698 83.0052 168.281 82.8594C167.865 82.7031 167.417 82.625 166.938 82.625C166.062 82.625 165.234 82.8542 164.453 83.3125C163.672 83.7708 162.885 84.375 162.094 85.125V97H159.125V71.9688ZM182.5 87.875V97H179.438V74.1094H185.906C187.031 74.1094 188.062 74.2656 189 74.5781C189.938 74.8906 190.74 75.3229 191.406 75.875C192.073 76.4167 192.589 77.0573 192.953 77.7969C193.328 78.5365 193.516 79.3333 193.516 80.1875C193.516 80.9375 193.38 81.6406 193.109 82.2969C192.839 82.9427 192.484 83.5417 192.047 84.0938C191.609 84.6354 191.109 85.125 190.547 85.5625C189.995 86 189.438 86.3802 188.875 86.7031L195.609 97H191.938L186.703 87.875H182.5ZM182.5 85.4531H187.578C188.016 85.2135 188.406 84.9219 188.75 84.5781C189.104 84.2344 189.401 83.8594 189.641 83.4531C189.88 83.0365 190.062 82.599 190.188 82.1406C190.323 81.6823 190.391 81.2135 190.391 80.7344C190.391 80.1406 190.286 79.5885 190.078 79.0781C189.87 78.5573 189.552 78.1094 189.125 77.7344C188.708 77.3594 188.182 77.0677 187.547 76.8594C186.911 76.6406 186.167 76.5312 185.312 76.5312H182.5V85.4531ZM212.562 95.5938C212.167 95.875 211.708 96.125 211.188 96.3438C210.677 96.5521 210.146 96.7292 209.594 96.875C209.042 97.0208 208.484 97.1302 207.922 97.2031C207.37 97.276 206.854 97.3125 206.375 97.3125C205.312 97.3125 204.302 97.1354 203.344 96.7812C202.385 96.4271 201.547 95.9062 200.828 95.2188C200.109 94.5312 199.536 93.6823 199.109 92.6719C198.682 91.651 198.469 90.4792 198.469 89.1562C198.469 87.7917 198.693 86.5521 199.141 85.4375C199.599 84.3229 200.208 83.375 200.969 82.5938C201.729 81.8021 202.604 81.1927 203.594 80.7656C204.594 80.3385 205.641 80.125 206.734 80.125C207.62 80.125 208.443 80.276 209.203 80.5781C209.974 80.8698 210.641 81.3125 211.203 81.9062C211.776 82.5 212.224 83.2448 212.547 84.1406C212.87 85.026 213.031 86.0625 213.031 87.25C213.031 87.4896 213.021 87.776 213 88.1094C212.979 88.4427 212.938 88.7917 212.875 89.1562H201.562C201.562 90.0521 201.719 90.8542 202.031 91.5625C202.354 92.2604 202.802 92.8542 203.375 93.3438C203.958 93.8229 204.651 94.1875 205.453 94.4375C206.255 94.6875 207.141 94.8125 208.109 94.8125C208.349 94.8125 208.641 94.8021 208.984 94.7812C209.328 94.7604 209.698 94.7188 210.094 94.6562C210.49 94.5938 210.901 94.5052 211.328 94.3906C211.755 94.2656 212.167 94.1042 212.562 93.9062V95.5938ZM210.219 87.3125C210.219 86.5312 210.109 85.8438 209.891 85.25C209.672 84.6458 209.375 84.1406 209 83.7344C208.625 83.3281 208.188 83.0208 207.688 82.8125C207.198 82.6042 206.672 82.5 206.109 82.5C205.484 82.5 204.896 82.6302 204.344 82.8906C203.792 83.1406 203.307 83.4844 202.891 83.9219C202.484 84.3594 202.161 84.8698 201.922 85.4531C201.682 86.0365 201.562 86.6562 201.562 87.3125H210.219ZM216.625 95.8125L224.094 85L225.625 83V82.6875L222.656 82.8125H216.984L217.609 80.4375H229.344V81.625L221.969 92.2188L220.281 94.4375V94.75L223.031 94.625H229.812L229.188 97H216.625V95.8125ZM234.266 80.4375H237.234V97H234.266V80.4375ZM235.766 76.8438C235.505 76.8438 235.26 76.7969 235.031 76.7031C234.802 76.6094 234.604 76.4792 234.438 76.3125C234.271 76.1458 234.141 75.9531 234.047 75.7344C233.953 75.5052 233.906 75.2552 233.906 74.9844C233.906 74.7135 233.958 74.4583 234.062 74.2188C234.167 73.9792 234.302 73.7708 234.469 73.5938C234.646 73.4167 234.849 73.2812 235.078 73.1875C235.318 73.0833 235.568 73.0312 235.828 73.0312C236.078 73.0312 236.312 73.0833 236.531 73.1875C236.76 73.2812 236.958 73.4167 237.125 73.5938C237.292 73.7708 237.422 73.9792 237.516 74.2188C237.609 74.4479 237.656 74.6927 237.656 74.9531C237.656 75.2344 237.604 75.4948 237.5 75.7344C237.396 75.9635 237.255 76.1615 237.078 76.3281C236.911 76.4844 236.714 76.6094 236.484 76.7031C236.255 76.7969 236.016 76.8438 235.766 76.8438Z" fill="#260312"/>
</svg>
