<svg width="167" height="448" viewBox="0 0 167 448" fill="none" xmlns="http://www.w3.org/2000/svg">
<path d="M96.9146 126.606C97.5946 124.466 98.2616 122.306 98.9076 120.135C101.22 112.374 103.003 103.524 103.818 99.1807C102.729 97.2291 101.349 95.4551 99.7256 93.9197C95.8649 97.7808 91.3504 100.927 86.3916 103.213C86.1156 103.338 85.8076 103.491 85.7186 103.781C85.6751 104.042 85.73 104.31 85.8726 104.534C86.0094 104.768 86.1625 104.993 86.3306 105.206C84.4026 105.206 82.2706 105.215 80.5496 105.217C80.7214 105.001 80.8772 104.772 81.0156 104.534C81.1592 104.311 81.2141 104.042 81.1696 103.781C81.0806 103.491 80.7696 103.338 80.4976 103.213C75.5388 100.927 71.0243 97.7808 67.1636 93.9197C65.5031 95.4908 64.097 97.3105 62.9956 99.3137C64.5746 104.577 65.7706 108.568 65.7706 108.568C66.9316 112.442 65.7706 108.568 68.8916 117.51C73.8916 131.825 80.7356 147.801 84.4206 155.759C84.4206 155.759 84.7816 156.538 85.3686 157.81C89.7503 147.613 93.6041 137.198 96.9146 126.606Z" fill="white" stroke="black"/>
<path d="M114.22 52.0417C114.711 51.6153 115.288 51.3001 115.913 51.1175C116.537 50.9349 117.193 50.8893 117.837 50.9837C118.468 51.073 119.071 51.3026 119.603 51.6556C120.134 52.0086 120.579 52.4761 120.906 53.0236C121.284 53.7798 121.499 54.607 121.537 55.4517C121.812 58.7555 121.175 62.0716 119.694 65.0377C118.995 66.5363 117.981 67.8665 116.721 68.9377C116.134 69.4973 115.375 69.8423 114.567 69.9167C113.759 69.9911 112.95 69.7906 112.271 69.3477C111.995 70.7948 111.602 72.2169 111.094 73.5997C110.166 76.0817 105.406 84.0567 99.1637 88.1427C99.1655 91.0245 99.4235 93.9005 99.9347 96.7366C100.371 99.2286 100.235 101.455 103.698 102.706C103.928 102.789 105.852 103.549 106.371 103.777C106.371 103.777 105.341 120.077 83.7857 120.3C62.2307 120.523 63.6527 102.706 63.6527 102.706C67.1167 101.455 66.9797 99.2286 67.4157 96.7366C67.9008 94.0424 68.1584 91.3121 68.1857 88.5746C65.4498 86.986 63.0208 84.9201 61.0137 82.4747C58.0282 78.8521 55.9155 74.5917 54.8387 70.0227C52.9707 70.7727 51.5767 69.8086 50.4837 68.9366C49.2239 67.8657 48.2101 66.5354 47.5117 65.0367C46.0298 62.0708 45.3918 58.7546 45.6677 55.4507C45.7057 54.606 45.9211 53.7787 46.2997 53.0226C46.6264 52.475 47.0716 52.0075 47.6027 51.6544C48.1338 51.3014 48.7372 51.0719 49.3687 50.9827C50.012 50.8882 50.6682 50.9339 51.2923 51.1165C51.9164 51.2991 52.4937 51.6143 52.9847 52.0407C52.9847 52.0407 53.1187 26.7437 80.9017 26.2997C108.685 25.8557 114.22 52.0417 114.22 52.0417Z" fill="white" stroke="black"/>
<path d="M46.5917 33.2887C46.0017 38.9657 46.3017 46.0467 48.0357 51.4067C48.8303 51.0087 49.7255 50.8565 50.607 50.9696C51.4885 51.0827 52.3163 51.456 52.9847 52.0417C52.9847 52.0417 53.3847 52.4007 53.7847 52.7337C53.5357 44.4817 55.1187 39.0767 61.3407 32.9997C62.0566 32.3884 62.8264 31.8431 63.6407 31.3707C63.9742 31.1525 64.3607 31.0289 64.7589 31.0132C65.1571 30.9976 65.5521 31.0903 65.9017 31.2817C66.9108 31.9185 67.97 32.4724 69.0687 32.9377C71.7857 33.7597 78.3547 35.6967 81.2777 36.3877C86.2537 37.5637 89.9957 35.1227 95.1777 35.3767C99.2847 35.6311 103.369 36.1694 107.402 36.9877C108.148 37.0612 108.867 37.3081 109.502 37.7087C109.987 38.1352 110.337 38.6946 110.508 39.3177C112.091 43.4466 113.341 47.6954 114.246 52.0237C114.736 51.6036 115.31 51.2934 115.93 51.114C116.55 50.9346 117.201 50.8902 117.84 50.9837C118.158 51.0315 118.47 51.114 118.77 51.2297C122.613 41.0007 121.423 26.2937 113.854 16.9887C107.226 8.84569 96.9127 3.97369 86.3717 3.07469C81.2645 2.77144 76.1425 3.32061 71.2157 4.69969C68.5039 5.31074 65.9638 6.52291 63.783 8.24677C61.6022 9.97064 59.8364 12.1622 58.6157 14.6597C53.4897 16.5087 50.2017 19.7197 48.1357 25.8687L47.6777 27.3997C47.1401 29.3262 46.7767 31.2971 46.5917 33.2887Z" fill="#7A7473" stroke="black"/>
<path d="M110.246 433.382C110.97 432.933 111.536 432.268 111.864 431.482C111.293 430.074 110.828 428.626 110.474 427.149C103.961 427.286 97.4449 427.046 90.9596 426.429L90.9417 429.156C95.21 432.553 100.512 434.388 105.968 434.356C107.455 434.417 108.932 434.081 110.246 433.382Z" fill="white" stroke="black"/>
<path d="M59.7348 427.27C59.3828 428.703 58.9276 430.11 58.3728 431.478C58.7003 432.264 59.2657 432.929 59.9898 433.378C61.3046 434.074 62.7813 434.408 64.2678 434.344C69.7235 434.376 75.0261 432.541 79.2948 429.144L79.2758 426.415C72.7894 427.146 66.2604 427.432 59.7348 427.27Z" fill="white" stroke="black"/>
<path d="M58.6017 420.23C58.5671 424.727 57.4761 429.153 55.4167 433.151C55.1608 433.611 55.0926 434.153 55.2264 434.663C55.3602 435.173 55.6856 435.611 56.1347 435.887C56.5939 436.149 57.1376 436.221 57.6492 436.087C58.1607 435.953 58.5993 435.624 58.8707 435.17C61.2691 430.551 62.5473 425.433 62.6017 420.23C62.6017 419.699 62.391 419.191 62.016 418.816C61.6409 418.44 61.1322 418.23 60.6017 418.23C60.0713 418.23 59.5626 418.44 59.1875 418.816C58.8125 419.191 58.6017 419.699 58.6017 420.23Z" fill="#211715" stroke="black"/>
<path d="M77.2407 421.27L77.3257 433.73C77.3257 434.26 77.5364 434.769 77.9115 435.144C78.2866 435.519 78.7953 435.73 79.3257 435.73C79.8562 435.73 80.3649 435.519 80.7399 435.144C81.115 434.769 81.3257 434.26 81.3257 433.73L81.2407 421.27C81.2407 420.739 81.03 420.231 80.6549 419.855C80.2799 419.48 79.7712 419.27 79.2407 419.27C78.7103 419.27 78.2016 419.48 77.8265 419.855C77.4514 420.231 77.2407 420.739 77.2407 421.27Z" fill="#211715" stroke="black"/>
<path d="M107.631 420.23C107.684 425.433 108.962 430.551 111.361 435.17C111.628 435.628 112.067 435.961 112.58 436.095C113.093 436.23 113.639 436.155 114.097 435.887C114.555 435.62 114.888 435.181 115.023 434.668C115.157 434.154 115.082 433.609 114.815 433.151C112.756 429.153 111.665 424.727 111.631 420.23C111.631 419.699 111.42 419.191 111.045 418.816C110.67 418.44 110.161 418.23 109.631 418.23C109.1 418.23 108.591 418.44 108.216 418.816C107.841 419.191 107.631 419.699 107.631 420.23Z" fill="#211715" stroke="black"/>
<path d="M88.9957 421.27L88.9097 433.73C88.9097 434.26 89.1204 434.769 89.4955 435.144C89.8705 435.519 90.3792 435.73 90.9097 435.73C91.4401 435.73 91.9488 435.519 92.3239 435.144C92.699 434.769 92.9097 434.26 92.9097 433.73L92.9957 421.27C92.9957 420.739 92.785 420.231 92.4099 419.855C92.0348 419.48 91.5261 419.27 90.9957 419.27C90.4652 419.27 89.9565 419.48 89.5815 419.855C89.2064 420.231 88.9957 420.739 88.9957 421.27Z" fill="#211715" stroke="black"/>
<path d="M84.9018 425.547C94.2938 427.5 116.287 427.734 121.22 426.089C121.665 418.724 122.479 345.616 124.465 312.618C126.138 284.839 127.454 251.509 129.085 234.111C109.89 233.818 59.4488 233.511 40.2998 233.195C41.9498 250.464 43.7878 284.595 45.4738 312.618C47.4608 345.618 48.2738 418.724 48.7198 426.089C53.6518 427.734 72.8348 427.85 84.2758 425.663" fill="#BDBDBD"/>
<path d="M84.9018 425.547C94.2938 427.5 116.287 427.734 121.22 426.089C121.665 418.724 122.479 345.616 124.465 312.618C126.138 284.839 127.454 251.509 129.085 234.111C109.89 233.818 59.4488 233.511 40.2998 233.195C41.9498 250.464 43.7878 284.595 45.4738 312.618C47.4608 345.618 48.2738 418.724 48.7198 426.089C53.6518 427.734 72.8348 427.85 84.2758 425.663" stroke="black"/>
<path d="M38.3018 233.2C39.7368 248.285 40.5578 263.435 41.4628 278.558C42.3728 293.766 43.4008 308.975 44.0628 324.196C44.6328 337.296 44.9948 350.405 45.3188 363.514C45.6368 376.35 45.9135 389.187 46.1488 402.026C46.3008 409.706 46.3638 417.396 46.6728 425.072C46.6868 425.413 46.7008 425.753 46.7218 426.094C46.7335 426.528 46.8815 426.948 47.1449 427.294C47.4084 427.64 47.7739 427.895 48.1898 428.022C50.3303 428.609 52.5316 428.947 54.7498 429.029C57.8448 429.27 60.9498 429.335 64.0588 429.318C71.0134 429.367 77.9584 428.791 84.8098 427.597C87.3368 427.121 86.2668 423.265 83.7468 423.739C77.2448 424.854 70.6555 425.383 64.0588 425.318C61.0478 425.335 58.0318 425.273 55.0278 425.05C53.073 425.002 51.1323 424.704 49.2528 424.165L50.7218 426.094C50.3218 419.416 50.3608 412.694 50.2278 406.007C49.9791 393.486 49.7161 380.965 49.4388 368.443C49.1228 355.099 48.7698 341.755 48.2388 328.418C47.6628 314 46.7018 299.6 45.8558 285.206C44.9138 269.256 44.0318 253.292 42.6748 237.37C42.5568 235.978 42.4318 234.586 42.2998 233.195C42.2857 232.669 42.0704 232.168 41.6984 231.796C41.3263 231.424 40.8258 231.209 40.2998 231.195C39.7705 231.198 39.2639 231.41 38.8896 231.785C38.5154 232.159 38.3035 232.665 38.2998 233.195L38.3018 233.2Z" fill="#211715" stroke="black"/>
<path d="M127.127 233.663C125.686 248.826 125.066 264.077 124.277 279.284C123.493 294.391 122.512 309.491 121.861 324.604C121.298 337.677 120.937 350.758 120.614 363.838C120.3 376.608 120.025 389.38 119.79 402.153C119.639 409.789 119.576 417.435 119.269 425.067C119.255 425.408 119.24 425.748 119.22 426.089L120.688 424.16C120.064 424.351 119.426 424.494 118.781 424.589C118.149 424.689 117.423 424.768 116.474 424.849C114.116 425.049 111.748 425.132 109.383 425.166C103.863 425.256 98.3419 425.068 92.8408 424.604C90.3548 424.419 87.8816 424.09 85.4338 423.619C82.9208 423.105 81.8458 426.96 84.3698 427.476C89.4493 428.405 94.5951 428.926 99.7578 429.033C105.126 429.301 110.505 429.256 115.868 428.898C117.857 428.834 119.831 428.538 121.752 428.017C122.168 427.89 122.533 427.636 122.797 427.29C123.06 426.944 123.208 426.523 123.22 426.089C123.614 419.452 123.579 412.771 123.711 406.126C123.957 393.726 124.218 381.326 124.492 368.926C124.805 355.61 125.156 342.295 125.68 328.986C126.245 314.645 127.18 300.321 127.929 285.986C128.763 269.952 129.447 253.893 130.755 237.886C130.87 236.474 130.994 235.063 131.127 233.653C131.123 233.123 130.911 232.617 130.537 232.243C130.163 231.868 129.656 231.656 129.127 231.653C128.6 231.664 128.098 231.878 127.725 232.251C127.352 232.624 127.138 233.126 127.127 233.653V233.663Z" fill="#211715" stroke="black"/>
<path d="M83.1176 281.978C82.5806 287.866 82.6496 293.827 82.6536 299.733C82.6596 306.838 82.7646 313.942 82.8306 321.047C82.9046 329.076 82.8516 337.107 82.8306 345.137C82.8086 356.145 82.7879 367.153 82.7686 378.161C82.7539 388.669 82.7496 399.177 82.7556 409.685C82.7609 413.285 82.7739 416.882 82.7946 420.477C82.8056 422.111 82.7406 423.777 82.8766 425.408C82.882 425.777 82.9767 426.14 83.1528 426.465C83.3289 426.79 83.581 427.067 83.8876 427.274C84.3464 427.539 84.891 427.612 85.4034 427.478C85.9158 427.343 86.3546 427.012 86.6246 426.557C86.8791 426.096 86.9465 425.554 86.8128 425.045C86.6792 424.535 86.3547 424.097 85.9066 423.82L86.6246 424.537C86.7426 424.757 86.8696 425.914 86.8666 425.197C86.8666 424.931 86.8486 424.664 86.8426 424.397C86.8216 423.462 86.8136 422.527 86.8056 421.592C86.7756 418.305 86.7676 415.017 86.7616 411.729C86.741 401.562 86.741 391.395 86.7616 381.229C86.777 370.153 86.7973 359.078 86.8226 348.002C86.8376 340.283 86.8876 332.563 86.8516 324.844C86.7886 311.669 86.2516 298.444 86.8886 285.279C86.9416 284.179 87.0106 283.079 87.1106 281.979C87.1069 281.449 86.8951 280.943 86.5208 280.569C86.1465 280.194 85.6399 279.982 85.1106 279.979C84.5836 279.99 84.0813 280.204 83.7086 280.577C83.3358 280.949 83.1216 281.452 83.1106 281.979L83.1176 281.978Z" fill="#211715" stroke="black"/>
<path d="M75.0228 320.928C81.4788 321.075 126.881 320.948 134.284 319.435C134.284 304.379 132.798 254.353 131.358 224.954C140.694 219.752 149.479 213.617 157.577 206.643C160.437 204.18 163.358 201.361 164.118 197.664C164.67 194.979 163.992 192.211 163.318 189.554L149.051 133.315C146.872 125.79 145.635 121.927 140.234 115.921C137.529 112.913 125.499 107.165 114.971 102.58C111.859 101.225 106.978 99.4367 103.978 98.2647C102.654 105.635 100.962 112.934 98.9078 120.135C95.1395 132.948 90.619 145.528 85.3698 157.809L84.4208 155.759C80.7358 147.8 73.8888 131.825 68.8918 117.51C65.7708 108.568 66.9318 112.442 65.7708 108.568L53.0578 103.534C42.6088 108.246 30.7288 114.234 28.1018 117.034C25.5718 119.727 23.0938 125.792 21.3208 130.58C14.2018 149.134 8.37179 168.453 3.17079 195.027C2.85588 197.916 3.19036 200.839 4.14979 203.583C4.72723 205.157 5.73135 206.54 7.04979 207.576C16.9331 214.948 27.5411 221.294 38.7098 226.518C36.8428 256.602 34.3608 306.238 33.3938 318.618C41.2358 319.431 62.5198 320.456 71.8588 319.244" fill="white"/>
<path d="M75.0228 320.928C81.4788 321.075 126.881 320.948 134.284 319.435C134.284 304.379 132.798 254.353 131.358 224.954C140.694 219.752 149.479 213.617 157.577 206.643C160.437 204.18 163.358 201.361 164.118 197.664C164.67 194.979 163.992 192.211 163.318 189.554L149.051 133.315C146.872 125.79 145.635 121.927 140.234 115.921C137.529 112.913 125.499 107.165 114.971 102.58C111.859 101.225 106.978 99.4367 103.978 98.2647C102.654 105.635 100.962 112.934 98.9078 120.135C95.1395 132.948 90.619 145.528 85.3698 157.809L84.4208 155.759C80.7358 147.8 73.8888 131.825 68.8918 117.51C65.7708 108.568 66.9318 112.442 65.7708 108.568L53.0578 103.534C42.6088 108.246 30.7288 114.234 28.1018 117.034C25.5718 119.727 23.0938 125.792 21.3208 130.58C14.2018 149.134 8.37179 168.453 3.17079 195.027C2.85588 197.916 3.19036 200.839 4.14979 203.583C4.72723 205.157 5.73135 206.54 7.04979 207.576C16.9331 214.948 27.5411 221.294 38.7098 226.518C36.8428 256.602 34.3608 306.238 33.3938 318.618C41.2358 319.431 62.5198 320.456 71.8588 319.244" stroke="black"/>
<path d="M66.1826 88.9927C66.0751 91.803 65.7822 94.6031 65.3056 97.3747C65.2416 97.7947 65.1756 98.2157 65.0766 98.6297C65.0256 98.8417 64.9616 99.0477 64.8966 99.2547C64.8796 99.3087 64.7546 99.6077 64.8686 99.3497C64.9926 99.0667 64.8156 99.4427 64.7846 99.4987C64.7386 99.5837 64.6846 99.6627 64.6366 99.7477C64.4726 100.061 64.8026 99.6117 64.6366 99.7607C64.4706 99.9097 64.3456 100.066 64.1916 100.209C64.0376 100.352 64.4316 100.07 64.1166 100.259C64.0096 100.323 63.9076 100.392 63.7996 100.454C63.583 100.583 63.3546 100.691 63.1176 100.778C62.6137 100.931 62.1877 101.271 61.9272 101.729C61.6667 102.186 61.5917 102.726 61.7176 103.238C61.8617 103.748 62.2007 104.18 62.6612 104.442C63.1216 104.704 63.6667 104.774 64.1786 104.638C65.6614 104.16 66.9646 103.245 67.9166 102.012C68.5402 101.076 68.9401 100.009 69.0856 98.8937C69.6922 95.625 70.0569 92.3161 70.1766 88.9937C70.1766 88.4633 69.9659 87.9546 69.5908 87.5795C69.2157 87.2044 68.707 86.9937 68.1766 86.9937C67.6462 86.9937 67.1374 87.2044 66.7624 87.5795C66.3873 87.9546 66.1766 88.4633 66.1766 88.9937L66.1826 88.9927Z" fill="#211715" stroke="black"/>
<path d="M97.1677 88.9927C97.2251 91.3829 97.4423 93.7665 97.8177 96.1277C97.9535 97.5862 98.2281 99.0284 98.6377 100.435C98.9262 101.251 99.3748 102.001 99.9571 102.641C100.539 103.282 101.244 103.799 102.029 104.164C102.644 104.454 103.289 104.679 103.921 104.928C104.243 105.055 104.564 105.183 104.886 105.313L105.341 105.497C105.828 105.692 105.103 105.392 105.361 105.504C105.823 105.755 106.363 105.82 106.871 105.687C107.38 105.553 107.819 105.231 108.098 104.786C108.361 104.327 108.434 103.783 108.299 103.271C108.165 102.759 107.835 102.32 107.38 102.05C106.342 101.6 105.288 101.178 104.23 100.778C103.941 100.663 103.662 100.524 103.396 100.363C103.286 100.299 103.029 100.117 103.26 100.296C103.124 100.189 102.996 100.072 102.878 99.9457C102.838 99.9047 102.559 99.5507 102.721 99.7757C102.883 100.001 102.606 99.5697 102.579 99.5197C102.517 99.4077 102.461 99.2937 102.408 99.1767C102.615 99.6337 102.423 99.1657 102.397 99.0767C102.059 97.7569 101.818 96.4144 101.675 95.0597C101.371 93.0493 101.202 91.0208 101.168 88.9877C101.168 88.4573 100.957 87.9486 100.582 87.5735C100.207 87.1984 99.6982 86.9877 99.1677 86.9877C98.6373 86.9877 98.1286 87.1984 97.7535 87.5735C97.3784 87.9486 97.1677 88.4573 97.1677 88.9877V88.9927Z" fill="#211715" stroke="black"/>
<path d="M79.1068 112.753C79.1668 113.011 79.2294 113.269 79.2948 113.527C79.4613 114.085 79.5561 114.662 79.5768 115.244C79.5718 115.862 76.9828 130.944 76.2698 136.877C78.1758 141.49 82.9608 152.363 85.6938 157.07C88.1068 152.47 90.3058 145.67 91.9558 140.36C91.4078 135.539 88.2898 116.395 88.3038 115.436C88.3723 114.392 88.5978 113.364 88.9728 112.388C89.8458 109.725 90.0208 107.866 90.8938 105.202C88.3038 105.202 79.3938 105.223 77.5128 105.223C78.1478 107.733 78.5208 110.243 79.1068 112.753Z" fill="#5394CF" stroke="black"/>
<path d="M79.6636 117.18C82.5436 117.18 85.4236 117.116 88.3036 117.115C88.834 117.115 89.3427 116.904 89.7178 116.529C90.0929 116.154 90.3036 115.645 90.3036 115.115C90.3036 114.584 90.0929 114.076 89.7178 113.7C89.3427 113.325 88.834 113.115 88.3036 113.115C85.4236 113.115 82.5436 113.179 79.6636 113.18C79.1331 113.18 78.6244 113.39 78.2494 113.765C77.8743 114.141 77.6636 114.649 77.6636 115.18C77.6636 115.71 77.8743 116.219 78.2494 116.594C78.6244 116.969 79.1331 117.18 79.6636 117.18Z" fill="#211715" stroke="black"/>
<path d="M93.7647 139.025C92.8037 132.576 91.8237 126.125 90.8817 119.679C90.7347 118.679 90.5887 117.67 90.4497 116.665C90.4257 116.49 90.4007 116.314 90.3777 116.138C90.4447 116.638 90.3877 116.22 90.3777 116.101C90.3557 115.913 90.3197 115.721 90.3127 115.532C90.2587 114.074 91.0577 112.544 91.4237 111.153C91.8987 109.345 92.2577 107.518 92.8237 105.734C92.9021 105.437 92.9117 105.126 92.8519 104.825C92.792 104.524 92.6643 104.241 92.4783 103.997C92.2924 103.752 92.0532 103.554 91.779 103.416C91.5047 103.278 91.2026 103.205 90.8957 103.202C86.4347 103.202 81.9747 103.223 77.5147 103.223C77.2082 103.227 76.9067 103.301 76.6331 103.44C76.3594 103.578 76.1207 103.776 75.9349 104.02C75.7491 104.264 75.6212 104.547 75.5607 104.847C75.5002 105.148 75.5088 105.458 75.5857 105.755C75.9707 107.313 76.2747 108.887 76.5857 110.461C76.8727 111.917 77.4187 113.439 77.5637 114.911C77.5721 116.041 77.4625 117.169 77.2367 118.277C76.5701 123.911 75.8874 129.544 75.1887 135.177C75.1913 135.706 75.4029 136.214 75.7774 136.588C76.1519 136.963 76.6591 137.174 77.1887 137.177C77.7152 137.164 78.2167 136.95 78.5892 136.577C78.9616 136.205 79.1763 135.703 79.1887 135.177C79.8887 129.455 80.5887 123.734 81.2687 118.009C81.506 116.781 81.5787 115.527 81.4847 114.281C81.2637 112.8 80.8287 111.341 80.5357 109.871C80.1897 108.141 79.8657 106.408 79.4427 104.695L77.5147 107.226C81.9747 107.226 86.4347 107.206 90.8957 107.205L88.9667 104.674C88.3997 106.457 88.0397 108.285 87.5667 110.092C87.1087 111.831 86.2497 113.633 86.3087 115.468C86.4346 117.05 86.6476 118.624 86.9467 120.183C87.9117 126.823 88.9227 133.455 89.9117 140.092C90.0547 140.602 90.3933 141.035 90.8539 141.297C91.3145 141.56 91.8599 141.629 92.3717 141.492C92.8766 141.34 93.3037 141 93.5644 140.542C93.8251 140.084 93.8994 139.543 93.7717 139.032L93.7647 139.025Z" fill="#211715" stroke="black"/>
<path d="M94.1226 114.756C98.4046 110.501 101.209 105.346 104.372 100.198C103.195 97.8537 101.623 95.7299 99.7256 93.9197C95.8649 97.7808 91.3505 100.927 86.3916 103.213C86.1156 103.338 85.8076 103.491 85.7186 103.781C85.6751 104.042 85.73 104.31 85.8726 104.534C86.7298 105.768 87.6504 106.956 88.6306 108.095C90.5066 110.391 92.8626 113.2 94.1226 114.756Z" fill="white" stroke="black"/>
<path d="M72.7656 114.756C68.4846 110.501 65.6796 105.346 62.5166 100.198C63.6935 97.8536 65.2655 95.7299 67.1636 93.9197C71.0255 97.7812 75.5414 100.928 80.5016 103.213C80.7776 103.338 81.0846 103.491 81.1736 103.781C81.2181 104.042 81.1631 104.311 81.0196 104.534C80.1632 105.768 79.2426 106.957 78.2616 108.095C76.3816 110.391 74.0256 113.2 72.7656 114.756Z" fill="white" stroke="black"/>
<path d="M95.5376 116.17C98.7671 112.732 101.577 108.922 103.908 104.822C104.508 103.828 105.108 102.831 105.714 101.838C106.141 101.297 106.362 100.621 106.337 99.9317C106.181 99.2851 105.904 98.6742 105.52 98.1317C104.344 96.0525 102.868 94.1578 101.14 92.5087C100.76 92.1418 100.253 91.9367 99.7251 91.9367C99.1973 91.9367 98.6901 92.1418 98.3106 92.5087C96.1341 94.6948 93.7309 96.6428 91.1416 98.3197C89.8826 99.1357 88.5856 99.8937 87.2516 100.582C85.9866 101.235 84.2176 101.699 83.7906 103.252C83.6904 103.813 83.7239 104.39 83.8882 104.936C84.0526 105.482 84.3432 105.981 84.7366 106.394C85.6026 107.542 86.5156 108.656 87.4266 109.769C89.1796 111.91 90.9626 114.027 92.7086 116.169C93.0855 116.541 93.5937 116.749 94.1231 116.749C94.6526 116.749 95.1607 116.542 95.5376 116.17C95.9015 115.789 96.1046 115.281 96.1046 114.754C96.1046 114.227 95.9015 113.721 95.5376 113.34C94.0796 111.549 92.5956 109.779 91.1266 107.997C90.2996 106.997 89.4736 105.989 88.6636 104.971C88.4356 104.684 88.2056 104.399 87.9886 104.102C87.8936 103.973 87.8046 103.816 87.7006 103.693C87.5226 103.485 87.7446 103.447 87.7186 103.78L87.4456 104.789C87.1123 105.061 87.0973 105.111 87.4006 104.939L87.7116 104.796C88.0236 104.649 88.3366 104.496 88.6466 104.348C89.2786 104.034 89.9033 103.704 90.5206 103.36C91.7926 102.65 93.0293 101.882 94.2306 101.055C96.706 99.3656 99.0189 97.45 101.14 95.3327H98.3106C100.074 97.0338 101.54 99.0195 102.645 101.207V99.1887C99.6266 104.113 96.8146 109.214 92.7086 113.341C90.8906 115.168 93.7186 118 95.5376 116.17Z" fill="#211715"/>
<path d="M95.5376 116.17C98.7671 112.732 101.577 108.922 103.908 104.822C104.508 103.828 105.108 102.831 105.714 101.838C106.141 101.297 106.362 100.621 106.337 99.9317C106.181 99.2851 105.904 98.6742 105.52 98.1317C104.344 96.0525 102.868 94.1578 101.14 92.5087C100.76 92.1418 100.253 91.9367 99.7251 91.9367C99.1973 91.9367 98.6901 92.1418 98.3106 92.5087C96.1341 94.6948 93.7309 96.6428 91.1416 98.3197C89.8826 99.1357 88.5856 99.8937 87.2516 100.582C85.9866 101.235 84.2176 101.699 83.7906 103.252C83.6904 103.813 83.7239 104.39 83.8882 104.936C84.0526 105.482 84.3432 105.981 84.7366 106.394C85.6026 107.542 86.5156 108.656 87.4266 109.769C89.1796 111.91 90.9626 114.027 92.7086 116.169C93.0855 116.541 93.5937 116.749 94.1231 116.749C94.6526 116.749 95.1607 116.542 95.5376 116.17ZM95.5376 116.17C95.9015 115.789 96.1046 115.281 96.1046 114.754C96.1046 114.227 95.9015 113.721 95.5376 113.34C94.0796 111.549 92.5956 109.779 91.1266 107.997C90.2996 106.997 89.4736 105.989 88.6636 104.971C88.4356 104.684 88.2056 104.399 87.9886 104.102C87.8936 103.973 87.8046 103.816 87.7006 103.693C87.5226 103.485 87.7446 103.447 87.7186 103.78L87.4456 104.789C87.1123 105.061 87.0973 105.111 87.4006 104.939L87.7116 104.796C88.0236 104.649 88.3366 104.496 88.6466 104.348C89.2786 104.034 89.9033 103.704 90.5206 103.36C91.7926 102.65 93.0293 101.882 94.2306 101.055C96.706 99.3656 99.0189 97.45 101.14 95.3327H98.3106C100.074 97.0338 101.54 99.0195 102.645 101.207V99.1887C99.6266 104.113 96.8146 109.214 92.7086 113.341C90.8906 115.168 93.7186 118 95.5376 116.17Z" stroke="black"/>
<path d="M74.1797 113.341C70.0737 109.214 67.2627 104.113 64.2437 99.1887V101.208C65.3488 99.0205 66.8139 97.0348 68.5777 95.3337H65.7497C67.8708 97.4502 70.1833 99.3657 72.6577 101.056C73.8577 101.88 75.0944 102.649 76.3677 103.361C76.9337 103.677 77.5067 103.98 78.0867 104.271C78.3967 104.426 78.7084 104.577 79.0217 104.724C79.1771 104.796 79.3324 104.868 79.4877 104.94C79.7897 105.113 79.7747 105.063 79.4427 104.79L79.1697 103.781C79.1477 103.496 79.3857 103.463 79.1887 103.694C79.1027 103.794 79.0347 103.918 78.9567 104.026C78.7247 104.35 78.4737 104.661 78.2257 104.972C77.4157 105.99 76.5897 106.994 75.7627 107.998C74.2937 109.78 72.8097 111.55 71.3517 113.341C70.9906 113.723 70.7893 114.229 70.7893 114.755C70.7893 115.281 70.9906 115.787 71.3517 116.17C71.7286 116.541 72.2365 116.75 72.7657 116.75C73.295 116.75 73.8029 116.541 74.1797 116.17C75.8907 114.07 77.6367 111.993 79.3547 109.897C80.2777 108.771 81.1987 107.644 82.0797 106.486C82.4944 106.066 82.803 105.553 82.9802 104.99C83.1574 104.427 83.198 103.83 83.0987 103.249C82.6837 101.74 81.0247 101.288 79.7927 100.659C78.4594 99.9767 77.1624 99.229 75.9017 98.4157C73.2539 96.7162 70.7982 94.7347 68.5777 92.5057C68.1982 92.1393 67.6913 91.9346 67.1637 91.9346C66.6362 91.9346 66.1293 92.1393 65.7497 92.5057C64.0627 94.1135 62.6168 95.9565 61.4567 97.9777C61.0984 98.5024 60.8068 99.0698 60.5887 99.6667C60.5234 100.049 60.542 100.442 60.6434 100.817C60.7448 101.192 60.9264 101.54 61.1757 101.838C61.7807 102.831 62.3757 103.828 62.9817 104.822C65.3122 108.923 68.1219 112.732 71.3517 116.17C73.1697 118 76.0017 115.169 74.1797 113.341Z" fill="#211715"/>
<path d="M71.3517 116.17C70.9906 115.787 70.7893 115.281 70.7893 114.755C70.7893 114.229 70.9906 113.723 71.3517 113.341C72.8097 111.55 74.2937 109.78 75.7627 107.998C76.5897 106.994 77.4157 105.99 78.2257 104.972C78.4737 104.661 78.7247 104.35 78.9567 104.026C79.0347 103.918 79.1027 103.794 79.1887 103.694C79.3857 103.463 79.1477 103.496 79.1697 103.781L79.4427 104.79C79.7747 105.063 79.7897 105.113 79.4877 104.94C79.3324 104.868 79.1771 104.796 79.0217 104.724C78.7084 104.577 78.3967 104.426 78.0867 104.271C77.5067 103.98 76.9337 103.677 76.3677 103.361C75.0944 102.649 73.8577 101.88 72.6577 101.056C70.1833 99.3657 67.8708 97.4502 65.7497 95.3337H68.5777C66.8139 97.0348 65.3488 99.0205 64.2437 101.208V99.1887C67.2627 104.113 70.0737 109.214 74.1797 113.341C76.0017 115.169 73.1697 118 71.3517 116.17ZM71.3517 116.17C71.7286 116.541 72.2365 116.75 72.7657 116.75C73.295 116.75 73.8029 116.541 74.1797 116.17C75.8907 114.07 77.6367 111.993 79.3547 109.897C80.2777 108.771 81.1987 107.644 82.0797 106.486C82.4944 106.066 82.803 105.553 82.9802 104.99C83.1574 104.427 83.198 103.83 83.0987 103.249C82.6837 101.74 81.0247 101.288 79.7927 100.659C78.4594 99.9767 77.1624 99.229 75.9017 98.4157C73.2539 96.7162 70.7982 94.7347 68.5777 92.5057C68.1982 92.1393 67.6913 91.9346 67.1637 91.9346C66.6362 91.9346 66.1293 92.1393 65.7497 92.5057C64.0627 94.1135 62.6168 95.9565 61.4567 97.9777C61.0984 98.5024 60.8068 99.0698 60.5887 99.6667C60.5234 100.049 60.542 100.442 60.6434 100.817C60.7448 101.192 60.9264 101.54 61.1757 101.838C61.7807 102.831 62.3757 103.828 62.9817 104.822C65.3122 108.923 68.1219 112.732 71.3517 116.17Z" stroke="black"/>
<path d="M104.813 100.456C112.992 103.779 121.122 107.305 128.998 111.299C131.955 112.712 134.801 114.347 137.511 116.192C138.447 116.946 139.296 117.802 140.043 118.744C141.185 120.101 142.206 121.554 143.096 123.089C144.862 126.501 146.214 130.113 147.123 133.847C147.838 136.314 151.699 135.264 150.98 132.783C150.05 129.137 148.77 125.59 147.159 122.191C145.622 119.052 143.521 116.224 140.959 113.848C138.473 111.877 135.774 110.192 132.912 108.824C128.94 106.735 124.872 104.824 120.782 102.982C115.854 100.758 110.885 98.6301 105.875 96.5987C105.363 96.4611 104.818 96.5309 104.357 96.793C103.896 97.0551 103.558 97.4884 103.415 97.9987C103.287 98.5101 103.361 99.0512 103.622 99.5093C103.882 99.9675 104.31 100.308 104.815 100.459L104.813 100.456Z" fill="#211715" stroke="black"/>
<path d="M130.264 149.134C128.805 160.994 128.301 173.01 127.579 184.934C127.458 186.934 127.339 188.934 127.221 190.934C127.068 195.066 127.278 199.203 127.848 203.299C128.285 207.092 128.562 210.899 128.794 214.706C129.472 225.817 129.918 236.943 130.345 248.065C130.85 261.193 131.283 274.324 131.645 287.458C131.922 297.384 132.201 307.315 132.271 317.246C132.275 317.979 132.278 318.71 132.28 319.438C132.28 322.011 136.28 322.016 136.28 319.438C136.28 310.311 136.011 301.181 135.77 292.058C135.424 278.991 135.008 265.928 134.522 252.868C134.091 241.219 133.631 229.568 132.979 217.93C132.773 214.256 132.562 210.578 132.229 206.913C131.873 202.996 131.241 199.101 131.122 195.164C131.055 192.914 131.232 190.664 131.365 188.424C132.083 176.361 132.734 164.271 133.921 152.243C134.021 151.206 134.132 150.171 134.26 149.137C134.257 148.607 134.045 148.1 133.671 147.726C133.296 147.351 132.789 147.14 132.26 147.137C131.733 147.149 131.232 147.364 130.859 147.736C130.487 148.109 130.272 148.61 130.26 149.137L130.264 149.134Z" fill="#211715" stroke="black"/>
<path d="M36.0768 150.268C37.5578 162.305 38.1048 174.493 38.8538 186.592C38.9598 188.303 39.0688 190.013 39.1668 191.725C39.4408 196.525 38.6668 201.278 38.1888 206.042C37.8448 209.442 37.6128 212.858 37.3768 216.269C36.5928 227.606 35.9538 238.954 35.3138 250.301C34.5805 263.244 33.8638 276.188 33.1638 289.134C32.6528 298.334 32.1768 307.547 31.5288 316.742C31.4848 317.368 31.4388 317.995 31.3908 318.622C31.1908 321.189 35.1908 321.176 35.3908 318.622C36.0448 310.216 36.4568 301.787 36.9278 293.369C37.6438 280.589 38.3505 267.811 39.0478 255.034C39.7088 243.213 40.3718 231.393 41.1528 219.58C41.4088 215.714 41.6698 211.847 42.0078 207.987C42.2638 205.062 42.6578 202.153 42.9398 199.231C43.2257 196.038 43.2591 192.828 43.0398 189.631C42.3108 177.611 41.6258 165.569 40.4398 153.584C40.3308 152.477 40.2128 151.37 40.0778 150.266C40.062 149.74 39.8462 149.241 39.4745 148.869C39.1028 148.497 38.6032 148.282 38.0778 148.266C37.5483 148.269 37.0415 148.481 36.6671 148.855C36.2927 149.229 36.0809 149.736 36.0778 150.266L36.0768 150.268Z" fill="#211715" stroke="black"/>
<path d="M52.0486 101.807C44.6626 105.143 37.1166 108.542 30.2676 112.907C27.9107 114.306 25.9313 116.261 24.5016 118.6C22.448 122.248 20.7386 126.079 19.3956 130.044C18.4956 132.46 22.3626 133.503 23.2526 131.108C24.4893 127.473 26.0628 123.961 27.9526 120.619C29.1813 118.61 30.9369 116.977 33.0286 115.897C39.8113 111.913 46.8382 108.36 54.0676 105.259C54.5226 104.988 54.853 104.55 54.9874 104.038C55.1217 103.526 55.0492 102.982 54.7856 102.523C54.5094 102.074 54.071 101.749 53.5615 101.615C53.0519 101.482 52.5105 101.55 52.0496 101.805L52.0486 101.807Z" fill="#211715" stroke="black"/>
<path d="M133.752 317.506C133.552 317.547 133.344 317.578 133.14 317.614C132.546 317.719 133.44 317.587 132.805 317.659C132.17 317.731 131.529 317.792 130.89 317.845C129.178 317.985 127.462 318.076 125.746 318.154C121.141 318.365 116.531 318.472 111.922 318.554C101.982 318.733 92.0388 318.777 82.0968 318.747C78.9808 318.738 75.8638 318.739 72.7488 318.67L74.7488 320.67C74.5698 304.238 74.7168 287.758 75.2858 271.336C75.6858 259.89 75.8808 248.436 76.0858 236.989C76.3578 222.211 76.6021 207.432 76.8188 192.654C76.8854 188.19 76.9491 183.727 77.0098 179.264C77.0198 178.507 77.0158 177.748 77.0348 176.991C77.0888 174.725 78.3398 172.651 79.5638 170.817C80.8248 168.926 82.2848 167.186 83.6428 165.367C86.1428 162.017 87.6008 157.749 89.1858 153.914C91.4728 148.38 93.5578 142.763 95.5238 137.107C99.637 125.55 102.924 113.715 105.36 101.692C105.635 100.283 105.901 98.8717 106.146 97.4577C106.271 96.9463 106.196 96.4063 105.936 95.9486C105.675 95.4909 105.249 95.1503 104.746 94.9967C104.234 94.8607 103.689 94.9312 103.229 95.193C102.768 95.4549 102.429 95.8872 102.285 96.3967C100.46 106.776 97.9162 117.016 94.6708 127.043C91.2926 138.122 87.1942 148.968 82.4018 159.513C79.4578 165.745 73.1098 170.248 73.0338 177.65C72.9978 181.187 72.9408 184.724 72.8888 188.261C72.6794 202.594 72.4481 216.925 72.1948 231.254C71.9728 243.733 71.8018 256.218 71.3828 268.692C70.8388 284.904 70.6908 301.133 70.7298 317.353C70.7298 318.459 70.7368 319.564 70.7488 320.67C70.7578 321.197 70.9714 321.701 71.3445 322.074C71.7176 322.447 72.2211 322.661 72.7488 322.67C79.9728 322.831 87.2078 322.77 94.4328 322.737C104.474 322.693 114.525 322.623 124.559 322.206C127.994 322.189 131.423 321.907 134.815 321.363C137.337 320.863 136.27 317.003 133.752 317.506Z" fill="#211715" stroke="black"/>
<path d="M33.3906 320.622C39.5906 321.257 45.8366 321.522 52.0616 321.694C58.6246 321.875 65.3266 322.075 71.8556 321.248C72.381 321.232 72.8806 321.016 73.2523 320.644C73.624 320.273 73.8398 319.773 73.8556 319.248C73.8525 318.718 73.6407 318.211 73.2664 317.837C72.892 317.463 72.3851 317.251 71.8556 317.248C65.3266 318.075 58.6246 317.875 52.0616 317.694C45.8366 317.522 39.5876 317.257 33.3906 316.622C32.8612 316.625 32.3545 316.837 31.9802 317.211C31.6058 317.586 31.394 318.092 31.3906 318.622C31.4019 319.149 31.6162 319.651 31.9888 320.023C32.3615 320.396 32.8637 320.61 33.3906 320.622Z" fill="#211715" stroke="black"/>
<path d="M63.8418 109.1C65.0188 113.025 66.5258 116.865 67.9118 120.718C70.9958 129.299 74.4118 137.763 77.9908 146.147C79.5118 149.708 81.0688 153.255 82.6908 156.77C82.9617 157.224 83.4005 157.554 83.9125 157.689C84.4245 157.823 84.9688 157.75 85.4278 157.487C85.8768 157.211 86.202 156.772 86.3356 156.263C86.4692 155.753 86.4008 155.211 86.1448 154.751C82.9758 147.898 80.0318 140.938 77.2188 133.932C74.2048 126.432 71.6188 118.787 68.7588 111.232C68.3588 110.177 68.0198 109.122 67.6958 108.041C66.9588 105.581 63.0958 106.629 63.8388 109.104L63.8418 109.1Z" fill="#211715" stroke="black"/>
<path d="M147.002 133.383L157.821 176.031L160.521 186.693C161.328 189.873 162.704 193.438 162.25 196.767C161.869 199.561 159.887 201.788 157.918 203.65C155.589 205.85 153.058 207.869 150.537 209.85C144.577 214.5 138.286 218.711 131.716 222.45C129.482 223.728 131.495 227.186 133.735 225.904C139.789 222.445 145.61 218.594 151.162 214.376C153.933 212.268 156.654 210.088 159.28 207.8C161.678 205.911 163.662 203.548 165.107 200.859C166.632 197.622 166.448 194.223 165.675 190.807C164.842 187.124 163.831 183.473 162.903 179.813L157.247 157.52L150.854 132.32C150.222 129.826 146.363 130.883 146.997 133.383H147.002Z" fill="#211715" stroke="black"/>
<path d="M130.647 195.212C132.218 194.281 133.98 193.673 135.339 192.412C136.1 191.757 136.666 190.904 136.973 189.948C137.28 188.991 137.317 187.969 137.079 186.993C136.668 185.497 136.034 184.071 135.198 182.765L132.08 177.504C130.769 175.291 127.309 177.304 128.626 179.523L131.296 184.023C131.686 184.682 132.124 185.33 132.455 186.023C132.524 186.166 132.586 186.313 132.655 186.458C132.807 186.794 132.614 186.358 132.701 186.558C132.801 186.805 132.908 187.052 133.001 187.303C133.118 187.613 133.208 187.933 133.271 188.259C133.208 187.9 133.266 188.465 133.271 188.499C133.296 188.871 133.318 188.378 133.261 188.575C133.212 188.745 133.127 188.912 133.253 188.665C133.171 188.828 133.077 188.983 132.97 189.131C133.137 188.905 132.904 189.19 132.832 189.265C132.705 189.401 132.565 189.524 132.432 189.656C132.108 189.986 132.697 189.526 132.254 189.791C132.106 189.88 131.963 189.977 131.815 190.065C131.462 190.273 131.099 190.465 130.735 190.649C130.03 191.009 129.314 191.349 128.635 191.749C126.422 193.06 128.435 196.519 130.654 195.203L130.647 195.212Z" fill="#211715" stroke="black"/>
<path d="M41.3506 192.128C40.0683 191.411 38.8495 190.587 37.7076 189.663C37.5916 189.557 37.479 189.448 37.3696 189.336C37.3696 189.336 36.9636 188.845 37.1436 189.098C37.0537 188.968 36.9725 188.832 36.9006 188.692C36.834 188.562 36.8433 188.582 36.9286 188.752L36.8796 188.579L36.8416 188.403C36.8696 188.603 36.8796 188.624 36.8716 188.473C36.8766 188.365 36.9026 188.034 36.8616 188.301C36.926 187.944 37.0265 187.596 37.1616 187.26C37.2486 187.026 37.3456 186.795 37.4416 186.565C37.5276 186.357 37.3356 186.797 37.4866 186.465C37.5426 186.342 37.5956 186.218 37.6526 186.096C37.9796 185.396 38.4186 184.747 38.8116 184.083L41.5116 179.528C42.8276 177.309 39.3716 175.294 38.0586 177.509L34.9586 182.738C34.1361 184.032 33.504 185.438 33.0816 186.913C32.8284 187.878 32.8463 188.895 33.1334 189.85C33.4204 190.806 33.9655 191.665 34.7086 192.331C36.1252 193.584 37.6771 194.676 39.3356 195.586C41.5356 196.927 43.5526 193.469 41.3546 192.132L41.3506 192.128Z" fill="#211715" stroke="black"/>
<path d="M19.3917 130.046C14.2821 143.376 9.97441 157.001 6.49169 170.846C5.49836 174.797 4.56503 178.762 3.69169 182.74C2.61733 186.909 1.75687 191.13 1.11369 195.387C0.776727 198.429 1.19152 201.508 2.32169 204.353C2.93932 205.982 3.92255 207.447 5.19569 208.637C6.84006 209.976 8.55054 211.232 10.3207 212.4C18.2933 217.987 26.6994 222.929 35.4587 227.178C37.7587 228.299 39.7947 224.851 37.4767 223.725C30.0295 220.111 22.8354 215.997 15.9437 211.412C14.159 210.222 12.3954 209.001 10.6527 207.749C9.26569 206.749 7.68569 205.836 6.77669 204.349C5.41412 201.863 4.81151 199.033 5.04369 196.208C5.249 194.395 5.58318 192.599 6.04369 190.834C6.46369 188.782 6.89703 186.735 7.34369 184.691C8.18903 180.828 9.08603 176.977 10.0347 173.138C11.7794 166.102 13.73 159.121 15.8867 152.197C18.1117 145.091 20.5807 138.063 23.2447 131.11C23.3816 130.598 23.3114 130.053 23.0494 129.592C22.7874 129.132 22.3546 128.793 21.8447 128.649C21.3331 128.52 20.7916 128.594 20.3331 128.855C19.8746 129.115 19.5345 129.543 19.3837 130.049L19.3917 130.046Z" fill="#211715" stroke="black"/>
<path d="M113.202 139.923C115.802 127.994 114.981 114.548 112.047 102.671C111.908 102.107 109.584 96.1017 105.047 96.1017L104.404 102.359C107.735 114.707 108.931 125.821 106.209 138.317" fill="white"/>
<path d="M113.202 139.923C115.802 127.994 114.981 114.548 112.047 102.671C111.908 102.107 109.584 96.1017 105.047 96.1017L104.404 102.359C107.735 114.707 108.931 125.821 106.209 138.317" stroke="black"/>
<path d="M106.452 158.466C105.721 158.464 105.002 158.29 104.352 157.957C103.702 157.623 103.14 157.141 102.713 156.549C101.86 155.169 101.407 153.58 101.404 151.958C101.304 150.161 101.458 148.358 101.859 146.604C102.242 145.013 102.97 143.087 104.469 142.234C105.26 141.837 106.126 141.61 107.01 141.565C107.894 141.52 108.778 141.659 109.606 141.974C110.751 142.485 111.686 143.373 112.257 144.49C113.608 146.943 114.134 149.766 113.757 152.541C113.807 152.141 113.716 152.765 113.71 152.79C113.664 153.006 113.621 153.221 113.563 153.435C113.463 153.813 113.329 154.181 113.163 154.535C112.755 155.383 112.181 156.142 111.477 156.766C110.09 157.975 108.281 158.586 106.446 158.466C103.873 158.356 103.878 162.357 106.446 162.466C108.903 162.559 111.32 161.824 113.309 160.379C115.298 158.934 116.744 156.863 117.416 154.498C118.336 150.574 117.81 146.451 115.933 142.885C114.852 140.775 113.044 139.129 110.843 138.25C108.642 137.371 106.198 137.32 103.962 138.106C98.7157 139.952 97.3687 146.126 97.3777 151.096C97.2633 153.76 97.9408 156.398 99.3247 158.677C100.129 159.824 101.194 160.766 102.431 161.424C103.669 162.083 105.044 162.44 106.446 162.466C106.975 162.462 107.481 162.249 107.855 161.875C108.229 161.501 108.441 160.995 108.446 160.466C108.435 159.939 108.222 159.438 107.851 159.065C107.479 158.692 106.978 158.477 106.452 158.466Z" fill="#211715"/>
<path d="M106.446 162.466C103.878 162.357 103.873 158.356 106.446 158.466C108.281 158.586 110.09 157.975 111.477 156.766C112.181 156.142 112.755 155.383 113.163 154.535C113.329 154.181 113.463 153.813 113.563 153.435C113.621 153.221 113.664 153.006 113.71 152.79C113.716 152.765 113.807 152.141 113.757 152.541C114.134 149.766 113.608 146.943 112.257 144.49C111.686 143.373 110.751 142.485 109.606 141.974C108.778 141.659 107.894 141.52 107.01 141.565C106.126 141.61 105.26 141.837 104.469 142.234C102.97 143.087 102.242 145.013 101.859 146.604C101.458 148.358 101.304 150.161 101.404 151.958C101.407 153.58 101.86 155.169 102.713 156.549C103.14 157.141 103.702 157.623 104.352 157.957C105.002 158.29 105.721 158.464 106.452 158.466C106.978 158.477 107.479 158.692 107.851 159.065C108.222 159.438 108.435 159.939 108.446 160.466C108.441 160.995 108.229 161.501 107.855 161.875C107.481 162.249 106.975 162.462 106.446 162.466ZM106.446 162.466C108.903 162.559 111.32 161.824 113.309 160.379C115.298 158.934 116.744 156.863 117.416 154.498C118.336 150.574 117.81 146.451 115.933 142.885C114.852 140.775 113.044 139.129 110.843 138.25C108.642 137.371 106.198 137.32 103.962 138.106C98.7157 139.952 97.3687 146.126 97.3777 151.096C97.2633 153.76 97.9408 156.398 99.3247 158.677C100.129 159.824 101.194 160.766 102.431 161.424C103.669 162.083 105.044 162.44 106.446 162.466Z" stroke="black"/>
<path d="M85.7116 180.892C85.6296 180.892 85.5476 180.88 85.4656 180.879C86.0656 180.887 85.8656 180.94 85.6656 180.891C85.4656 180.842 85.0846 180.602 85.6486 180.921C85.5166 180.846 85.3766 180.788 85.2486 180.707C85.1696 180.658 85.0966 180.597 85.0166 180.55C85.5106 180.839 85.2606 180.742 85.1286 180.621C84.9723 180.503 84.8371 180.359 84.7286 180.196C84.7286 180.196 85.0286 180.632 84.8656 180.363C84.8146 180.276 84.7566 180.195 84.7076 180.108C84.6586 180.021 84.6316 179.958 84.5926 179.883C84.4726 179.657 84.7636 180.39 84.6576 180.031C84.5986 179.831 84.5676 179.618 84.5026 179.424C84.6646 179.908 84.5406 179.754 84.5336 179.524C84.5336 179.436 84.5336 179.347 84.5336 179.259C84.5386 179.125 84.5546 178.994 84.5656 178.859C84.5036 179.609 84.5366 179.095 84.5796 178.907C84.6177 178.744 84.6644 178.583 84.7196 178.425C84.7766 178.263 84.9296 178.025 84.6416 178.589C84.6796 178.514 84.7116 178.436 84.7496 178.361C84.8143 178.235 84.8854 178.113 84.9626 177.995C85.2296 177.595 84.6366 178.36 84.9626 177.995C85.0766 177.866 85.2096 177.762 85.3306 177.642C84.9306 178.042 85.0406 177.858 85.2036 177.753C85.2776 177.706 85.3536 177.662 85.4306 177.622C85.4826 177.595 85.5396 177.574 85.5906 177.545C85.0906 177.828 85.2676 177.677 85.4536 177.62C85.5286 177.597 85.6056 177.582 85.6806 177.561C85.8576 177.509 86.0426 177.573 85.4856 177.575C85.7016 177.575 85.9146 177.548 86.1316 177.557C86.2406 177.557 86.3586 177.587 86.4666 177.582C85.9456 177.606 86.1446 177.533 86.3536 177.582C86.5155 177.615 86.6752 177.659 86.8316 177.713C86.9006 177.738 87.2056 177.862 86.8546 177.713C86.5036 177.564 86.7936 177.694 86.8616 177.731C86.9296 177.768 87.0156 177.818 87.0896 177.866C87.2526 177.966 87.3576 178.142 86.9636 177.755C87.0836 177.873 87.2136 177.976 87.3256 178.102C87.3626 178.143 87.3956 178.189 87.4326 178.228C87.0236 177.796 87.2126 177.936 87.3126 178.089C87.3861 178.203 87.4529 178.321 87.5126 178.443C87.5936 178.605 87.6296 178.853 87.4436 178.264C87.4676 178.341 87.5016 178.417 87.5266 178.494C87.5732 178.636 87.6119 178.782 87.6426 178.929C87.6566 178.996 87.6686 179.063 87.6806 179.129C87.7466 179.474 87.6286 178.572 87.6506 178.922C87.6596 179.058 87.6706 179.193 87.6716 179.33C87.6716 179.42 87.6636 179.51 87.6616 179.601C87.6546 179.954 87.7686 179.084 87.6866 179.425C87.6446 179.6 87.5986 179.769 87.5456 179.94C87.4386 180.283 87.7796 179.475 87.6076 179.791C87.5506 179.891 87.4976 180.002 87.4336 180.103C87.4016 180.154 87.3666 180.203 87.3336 180.253C87.1566 180.528 87.6956 179.837 87.3626 180.202C87.2366 180.34 87.0896 180.452 86.9626 180.582C87.3466 180.202 87.2506 180.375 87.1006 180.464C87.0006 180.521 86.9126 180.585 86.8146 180.639C86.7346 180.696 86.6462 180.741 86.5526 180.771L86.8526 180.647C86.7896 180.672 86.7266 180.696 86.6636 180.717C86.4636 180.785 86.2636 180.828 86.0636 180.876C85.6696 180.97 86.5766 180.842 86.1636 180.865C86.0136 180.873 85.8636 180.883 85.7146 180.885C85.1842 180.885 84.6755 181.095 84.3004 181.47C83.9253 181.846 83.7146 182.354 83.7146 182.885C83.7146 183.415 83.9253 183.924 84.3004 184.299C84.6755 184.674 85.1842 184.885 85.7146 184.885C86.8585 184.941 87.9928 184.652 88.9704 184.055C89.9479 183.459 90.7235 182.582 91.1964 181.539C91.6693 180.496 91.8177 179.335 91.6223 178.206C91.4269 177.078 90.8967 176.034 90.1006 175.211C89.229 174.356 88.1103 173.797 86.9032 173.613C85.6961 173.43 84.4619 173.631 83.3756 174.189C82.4925 174.731 81.7661 175.494 81.2682 176.402C80.7703 177.311 80.5181 178.334 80.5366 179.37C80.5342 180.776 81.0688 182.13 82.0313 183.155C82.9937 184.18 84.3112 184.799 85.7146 184.885C86.245 184.885 86.7537 184.674 87.1288 184.299C87.5039 183.924 87.7146 183.415 87.7146 182.885C87.7146 182.354 87.5039 181.846 87.1288 181.47C86.7537 181.095 86.245 180.885 85.7146 180.885L85.7116 180.892Z" fill="#211715"/>
<path d="M84.9626 177.995C84.8854 178.113 84.8143 178.235 84.7496 178.361C84.7116 178.436 84.6796 178.514 84.6416 178.589C84.9296 178.025 84.7766 178.263 84.7196 178.425C84.6644 178.583 84.6177 178.744 84.5796 178.907C84.5366 179.095 84.5036 179.609 84.5656 178.859C84.5546 178.994 84.5386 179.125 84.5336 179.259C84.5336 179.347 84.5336 179.436 84.5336 179.524C84.5406 179.754 84.6646 179.908 84.5026 179.424C84.5676 179.618 84.5986 179.831 84.6576 180.031C84.7636 180.39 84.4726 179.657 84.5926 179.883C84.6316 179.958 84.6586 180.021 84.7076 180.108C84.7566 180.195 84.8146 180.276 84.8656 180.363C85.0286 180.632 84.7286 180.196 84.7286 180.196C84.8371 180.359 84.9723 180.503 85.1286 180.621C85.2606 180.742 85.5106 180.839 85.0166 180.55C85.0966 180.597 85.1696 180.658 85.2486 180.707C85.3766 180.788 85.5166 180.846 85.6486 180.921C85.0846 180.602 85.4656 180.842 85.6656 180.891C85.8656 180.94 86.0656 180.887 85.4656 180.879C85.5476 180.88 85.6296 180.892 85.7116 180.892L85.7146 180.885M84.9626 177.995C84.6366 178.36 85.2296 177.595 84.9626 177.995ZM84.9626 177.995C85.0766 177.866 85.2096 177.762 85.3306 177.642C84.9306 178.042 85.0406 177.858 85.2036 177.753C85.2776 177.706 85.3536 177.662 85.4306 177.622C85.4826 177.595 85.5396 177.574 85.5906 177.545C85.0906 177.828 85.2676 177.677 85.4536 177.62C85.5286 177.597 85.6056 177.582 85.6806 177.561C85.8576 177.509 86.0426 177.573 85.4856 177.575C85.7016 177.575 85.9146 177.548 86.1316 177.557C86.2406 177.557 86.3586 177.587 86.4666 177.582C85.9456 177.606 86.1446 177.533 86.3536 177.582C86.5155 177.615 86.6752 177.659 86.8316 177.713C86.9006 177.738 87.2056 177.862 86.8546 177.713C86.5036 177.564 86.7936 177.694 86.8616 177.731C86.9296 177.768 87.0156 177.818 87.0896 177.866C87.2526 177.966 87.3576 178.142 86.9636 177.755C87.0836 177.873 87.2136 177.976 87.3256 178.102C87.3626 178.143 87.3956 178.189 87.4326 178.228C87.0236 177.796 87.2126 177.936 87.3126 178.089C87.3861 178.203 87.4529 178.321 87.5126 178.443C87.5936 178.605 87.6296 178.853 87.4436 178.264C87.4676 178.341 87.5016 178.417 87.5266 178.494C87.5732 178.636 87.6119 178.782 87.6426 178.929C87.6566 178.996 87.6686 179.063 87.6806 179.129C87.7466 179.474 87.6286 178.572 87.6506 178.922C87.6596 179.058 87.6706 179.193 87.6716 179.33C87.6716 179.42 87.6636 179.51 87.6616 179.601C87.6546 179.954 87.7686 179.084 87.6866 179.425C87.6446 179.6 87.5986 179.769 87.5456 179.94C87.4386 180.283 87.7796 179.475 87.6076 179.791C87.5506 179.891 87.4976 180.002 87.4336 180.103C87.4016 180.154 87.3666 180.203 87.3336 180.253C87.1566 180.528 87.6956 179.837 87.3626 180.202C87.2366 180.34 87.0896 180.452 86.9626 180.582C87.3466 180.202 87.2506 180.375 87.1006 180.464C87.0006 180.521 86.9126 180.585 86.8146 180.639C86.7346 180.696 86.6462 180.741 86.5526 180.771L86.8526 180.647C86.7896 180.672 86.7266 180.696 86.6636 180.717C86.4636 180.785 86.2636 180.828 86.0636 180.876C85.6696 180.97 86.5766 180.842 86.1636 180.865C86.0136 180.873 85.8636 180.883 85.7146 180.885M85.7146 180.885C85.1842 180.885 84.6755 181.095 84.3004 181.47C83.9253 181.846 83.7146 182.354 83.7146 182.885C83.7146 183.415 83.9253 183.924 84.3004 184.299C84.6755 184.674 85.1842 184.885 85.7146 184.885M85.7146 180.885C86.245 180.885 86.7537 181.095 87.1288 181.47C87.5039 181.846 87.7146 182.354 87.7146 182.885C87.7146 183.415 87.5039 183.924 87.1288 184.299C86.7537 184.674 86.245 184.885 85.7146 184.885M85.7146 184.885C86.8585 184.941 87.9928 184.652 88.9704 184.055C89.9479 183.459 90.7235 182.582 91.1964 181.539C91.6693 180.496 91.8177 179.335 91.6223 178.206C91.4269 177.078 90.8967 176.034 90.1006 175.211C89.229 174.356 88.1103 173.797 86.9032 173.613C85.6961 173.43 84.4619 173.631 83.3756 174.189C82.4925 174.731 81.7661 175.494 81.2682 176.402C80.7703 177.311 80.5181 178.334 80.5366 179.37C80.5342 180.776 81.0688 182.13 82.0313 183.155C82.9937 184.18 84.3112 184.799 85.7146 184.885Z" stroke="black"/>
<path d="M85.7116 206.67C85.6296 206.67 85.5476 206.658 85.4656 206.656C86.0656 206.665 85.8656 206.718 85.6656 206.669C85.4656 206.62 85.0846 206.38 85.6486 206.699C85.5166 206.624 85.3766 206.566 85.2486 206.485C85.1696 206.436 85.0966 206.374 85.0166 206.328C85.5106 206.617 85.2606 206.52 85.1286 206.399C84.9723 206.281 84.8371 206.137 84.7286 205.974C84.7286 205.974 85.0286 206.41 84.8656 206.14C84.8146 206.054 84.7566 205.973 84.7076 205.885C84.6666 205.812 84.6316 205.736 84.5926 205.661C84.4726 205.435 84.7636 206.168 84.6576 205.809C84.5986 205.609 84.5676 205.396 84.5026 205.202C84.6646 205.686 84.5406 205.531 84.5336 205.302C84.5336 205.214 84.5336 205.125 84.5336 205.036C84.5386 204.903 84.5546 204.772 84.5656 204.636C84.5036 205.385 84.5366 204.872 84.5796 204.684C84.6177 204.521 84.6644 204.36 84.7196 204.202C84.7766 204.04 84.9296 203.802 84.6416 204.366C84.6796 204.291 84.7116 204.212 84.7496 204.137C84.8146 204.012 84.8856 203.89 84.9626 203.772C85.2296 203.372 84.6366 204.136 84.9626 203.772C85.0766 203.644 85.2096 203.54 85.3306 203.42C84.9306 203.82 85.0406 203.635 85.2036 203.531C85.2776 203.484 85.3536 203.44 85.4306 203.4C85.4826 203.373 85.5396 203.352 85.5906 203.323C85.0906 203.606 85.2676 203.454 85.4536 203.398C85.5286 203.375 85.6056 203.36 85.6806 203.338C85.8576 203.287 86.0426 203.351 85.4856 203.353C85.7016 203.353 85.9146 203.325 86.1316 203.335C86.2406 203.335 86.3586 203.365 86.4666 203.36C85.9456 203.383 86.1446 203.311 86.3536 203.36C86.5155 203.393 86.6752 203.437 86.8316 203.491C86.9006 203.515 87.2056 203.64 86.8546 203.491C86.5036 203.342 86.7936 203.472 86.8616 203.509C86.9296 203.546 87.0156 203.595 87.0896 203.644C87.2526 203.744 87.3576 203.92 86.9636 203.533C87.0836 203.651 87.2136 203.754 87.3256 203.88C87.3626 203.921 87.3956 203.967 87.4326 204.006C87.0236 203.574 87.2126 203.714 87.3126 203.867C87.3861 203.981 87.4529 204.099 87.5126 204.221C87.5936 204.383 87.6296 204.631 87.4436 204.041C87.4676 204.119 87.5016 204.195 87.5266 204.272C87.5732 204.414 87.6119 204.56 87.6426 204.707C87.6566 204.774 87.6686 204.841 87.6806 204.907C87.7466 205.252 87.6286 204.35 87.6506 204.701C87.6596 204.837 87.6706 204.972 87.6716 205.108C87.6716 205.199 87.6636 205.289 87.6616 205.38C87.6546 205.733 87.7686 204.862 87.6866 205.204C87.6446 205.378 87.5986 205.548 87.5456 205.719C87.4386 206.062 87.7796 205.254 87.6076 205.569C87.5506 205.674 87.4976 205.78 87.4336 205.882C87.4016 205.933 87.3666 205.982 87.3336 206.032C87.1566 206.307 87.6956 205.616 87.3626 205.981C87.2366 206.118 87.0896 206.23 86.9626 206.36C87.3466 205.981 87.2506 206.154 87.1006 206.243C87.0006 206.3 86.9126 206.363 86.8146 206.418C86.7348 206.475 86.6464 206.519 86.5526 206.549L86.8526 206.426C86.7896 206.451 86.7266 206.474 86.6636 206.496C86.4636 206.564 86.2636 206.606 86.0636 206.655C85.6696 206.749 86.5766 206.621 86.1636 206.643C86.0136 206.652 85.8636 206.662 85.7146 206.664C85.1841 206.664 84.6754 206.874 84.3004 207.249C83.9253 207.625 83.7146 208.133 83.7146 208.664C83.7146 209.194 83.9253 209.703 84.3004 210.078C84.6754 210.453 85.1841 210.664 85.7146 210.664C86.8565 210.718 87.9885 210.428 88.964 209.832C89.9395 209.236 90.7137 208.361 91.1862 207.32C91.6588 206.279 91.8081 205.12 91.6147 203.993C91.4213 202.866 90.8942 201.824 90.1016 201C89.23 200.145 88.1113 199.586 86.9042 199.402C85.6971 199.219 84.4628 199.42 83.3766 199.978C82.4934 200.52 81.7669 201.283 81.269 202.191C80.7711 203.1 80.519 204.123 80.5376 205.159C80.5354 206.565 81.0702 207.918 82.0325 208.943C82.9949 209.968 84.3123 210.587 85.7156 210.674C86.246 210.674 86.7547 210.463 87.1298 210.088C87.5049 209.713 87.7156 209.204 87.7156 208.674C87.7156 208.143 87.5049 207.635 87.1298 207.259C86.7547 206.884 86.246 206.674 85.7156 206.674L85.7116 206.67Z" fill="#211715"/>
<path d="M84.9626 203.772C84.8856 203.89 84.8146 204.012 84.7496 204.137C84.7116 204.212 84.6796 204.291 84.6416 204.366C84.9296 203.802 84.7766 204.04 84.7196 204.202C84.6644 204.36 84.6177 204.521 84.5796 204.684C84.5366 204.872 84.5036 205.385 84.5656 204.636C84.5546 204.772 84.5386 204.903 84.5336 205.036C84.5336 205.125 84.5336 205.214 84.5336 205.302C84.5406 205.531 84.6646 205.686 84.5026 205.202C84.5676 205.396 84.5986 205.609 84.6576 205.809C84.7636 206.168 84.4726 205.435 84.5926 205.661C84.6316 205.736 84.6666 205.812 84.7076 205.885C84.7566 205.973 84.8146 206.054 84.8656 206.14C85.0286 206.41 84.7286 205.974 84.7286 205.974C84.8371 206.137 84.9723 206.281 85.1286 206.399C85.2606 206.52 85.5106 206.617 85.0166 206.328C85.0966 206.374 85.1696 206.436 85.2486 206.485C85.3766 206.566 85.5166 206.624 85.6486 206.699C85.0846 206.38 85.4656 206.62 85.6656 206.669C85.8656 206.718 86.0656 206.665 85.4656 206.656C85.5476 206.658 85.6296 206.67 85.7116 206.67L85.7156 206.674C86.246 206.674 86.7547 206.884 87.1298 207.259C87.5049 207.635 87.7156 208.143 87.7156 208.674C87.7156 209.204 87.5049 209.713 87.1298 210.088C86.7547 210.463 86.246 210.674 85.7156 210.674C84.3123 210.587 82.9949 209.968 82.0325 208.943C81.0702 207.918 80.5354 206.565 80.5376 205.159C80.519 204.123 80.7711 203.1 81.269 202.191C81.7669 201.283 82.4934 200.52 83.3766 199.978C84.4628 199.42 85.6971 199.219 86.9042 199.402C88.1113 199.586 89.23 200.145 90.1016 201C90.8942 201.824 91.4213 202.866 91.6147 203.993C91.8081 205.12 91.6588 206.279 91.1862 207.32C90.7137 208.361 89.9395 209.236 88.964 209.832C87.9885 210.428 86.8565 210.718 85.7146 210.664C85.1841 210.664 84.6754 210.453 84.3004 210.078C83.9253 209.703 83.7146 209.194 83.7146 208.664C83.7146 208.133 83.9253 207.625 84.3004 207.249C84.6754 206.874 85.1841 206.664 85.7146 206.664C85.8636 206.662 86.0136 206.652 86.1636 206.643C86.5766 206.621 85.6696 206.749 86.0636 206.655C86.2636 206.606 86.4636 206.564 86.6636 206.496C86.7266 206.474 86.7896 206.451 86.8526 206.426L86.5526 206.549C86.6464 206.519 86.7348 206.475 86.8146 206.418C86.9126 206.363 87.0006 206.3 87.1006 206.243C87.2506 206.154 87.3466 205.981 86.9626 206.36C87.0896 206.23 87.2366 206.118 87.3626 205.981C87.6956 205.616 87.1566 206.307 87.3336 206.032C87.3666 205.982 87.4016 205.933 87.4336 205.882C87.4976 205.78 87.5506 205.674 87.6076 205.569C87.7796 205.254 87.4386 206.062 87.5456 205.719C87.5986 205.548 87.6446 205.378 87.6866 205.204C87.7686 204.862 87.6546 205.733 87.6616 205.38C87.6636 205.289 87.6716 205.199 87.6716 205.108C87.6706 204.972 87.6596 204.837 87.6506 204.701C87.6286 204.35 87.7466 205.252 87.6806 204.907C87.6686 204.841 87.6566 204.774 87.6426 204.707C87.6119 204.56 87.5732 204.414 87.5266 204.272C87.5016 204.195 87.4676 204.119 87.4436 204.041C87.6296 204.631 87.5936 204.383 87.5126 204.221C87.4529 204.099 87.3861 203.981 87.3126 203.867C87.2126 203.714 87.0236 203.574 87.4326 204.006C87.3956 203.967 87.3626 203.921 87.3256 203.88C87.2136 203.754 87.0836 203.651 86.9636 203.533C87.3576 203.92 87.2526 203.744 87.0896 203.644C87.0156 203.595 86.9296 203.546 86.8616 203.509C86.7936 203.472 86.5036 203.342 86.8546 203.491C87.2056 203.64 86.9006 203.515 86.8316 203.491C86.6752 203.437 86.5155 203.393 86.3536 203.36C86.1446 203.311 85.9456 203.383 86.4666 203.36C86.3586 203.365 86.2406 203.335 86.1316 203.335C85.9146 203.325 85.7016 203.353 85.4856 203.353C86.0426 203.351 85.8576 203.287 85.6806 203.338C85.6056 203.36 85.5286 203.375 85.4536 203.398C85.2676 203.454 85.0906 203.606 85.5906 203.323C85.5396 203.352 85.4826 203.373 85.4306 203.4C85.3536 203.44 85.2776 203.484 85.2036 203.531C85.0406 203.635 84.9306 203.82 85.3306 203.42C85.2096 203.54 85.0766 203.644 84.9626 203.772ZM84.9626 203.772C84.6366 204.136 85.2296 203.372 84.9626 203.772Z" stroke="black"/>
<path d="M59.7016 173.749C62.5906 173.749 67.7886 171.932 68.2756 171.657C71.3436 169.923 72.5826 167.457 73.3446 163.225C74.2276 158.325 72.8076 153.299 70.8766 148.711C68.9456 144.123 63.4336 129.99 61.7576 125.064C60.1576 120.351 61.8276 108.151 63.1926 102.706L61.9546 96.9257C57.8316 98.1007 56.0266 100.278 54.1276 102.706C51.9767 105.695 50.2793 108.985 49.0906 112.471C47.7064 117.159 46.6308 121.933 45.8706 126.762C44.8438 134.081 44.587 141.489 45.1046 148.862C45.4746 153.408 46.6306 162.926 49.3346 166.617L58.4746 164.917C56.2356 161.342 54.3346 155.099 53.7576 150.974C53.0576 145.952 53.0576 133.804 54.0576 129.73C56.2176 134.174 61.5396 145.508 62.7246 149.123C63.4066 151.204 65.3246 156.05 65.3166 158.234C65.3036 161.171 65.1596 163.17 63.1816 165.207C62.7756 165.625 60.3546 166.62 56.5076 167.229L59.7016 173.749Z" fill="white" stroke="black"/>
<path d="M51.0646 165.611C48.8646 162.503 48.3016 158.142 47.7466 154.472C47.1475 150.391 46.8467 146.273 46.8466 142.149C46.7706 137.018 47.1154 131.891 47.8776 126.817C48.7946 121.146 49.9036 115.209 52.2606 109.941C54.3506 105.27 57.3226 100.4 62.4896 98.8537L60.0286 97.4537L61.2676 103.234V102.171C59.958 107.496 59.2364 112.95 59.1156 118.433C58.962 120.842 59.2038 123.26 59.8316 125.592C60.4636 127.554 61.2316 129.482 61.9516 131.411C63.7996 136.32 65.7016 141.209 67.6576 146.077C69.9796 151.852 72.6076 157.66 71.1496 164.014C70.8904 165.479 70.3195 166.871 69.4756 168.097C69.1439 168.522 68.7614 168.906 68.3366 169.239C68.0456 169.469 67.7156 169.639 67.4106 169.839C67.1886 169.99 67.0446 170.021 67.3916 169.876C64.9631 170.957 62.3586 171.589 59.7046 171.741C57.1336 171.787 57.1256 175.787 59.7046 175.741C62.6645 175.587 65.576 174.926 68.3126 173.788C69.6862 173.216 70.9254 172.364 71.9507 171.286C72.9759 170.208 73.7647 168.927 74.2666 167.527C75.7255 163.544 75.9986 159.224 75.0526 155.09C74.2264 151.792 73.1055 148.576 71.7036 145.479C69.4096 139.796 67.1943 134.081 65.0576 128.333C64.1557 126.3 63.5308 124.155 63.1996 121.956C63.0027 118.649 63.1307 115.331 63.5816 112.05C63.7909 110.24 64.0623 108.44 64.3956 106.65C64.6516 105.264 65.3626 103.509 65.1136 102.117C64.7696 100.198 64.2946 98.2947 63.8866 96.3877C63.739 95.8807 63.3989 95.4516 62.9389 95.1922C62.479 94.9328 61.9358 94.8637 61.4256 94.9997C56.3606 96.5147 52.8676 100.332 50.3396 104.846C47.2886 110.295 45.7846 116.346 44.6096 122.437C42.6239 132.625 42.2783 143.065 43.5856 153.362C43.9037 156.027 44.3833 158.671 45.0216 161.278C45.4973 163.534 46.3742 165.686 47.6106 167.633C49.0856 169.718 52.5556 167.722 51.0646 165.614V165.611Z" fill="#211715" stroke="black"/>
<path d="M60.2018 163.908C56.9568 158.608 55.6578 152.295 55.3808 146.417C55.2388 143.39 55.2238 140.354 55.3218 137.326C55.3109 134.955 55.5323 132.589 55.9828 130.262L52.3268 130.74C54.8028 135.84 57.2268 140.983 59.4428 146.203C60.3288 148.288 61.0648 150.422 61.8058 152.561C62.7978 155.423 63.6998 158.051 63.1558 161.061C63.0356 161.816 62.7461 162.534 62.3088 163.161C62.2198 163.285 62.1148 163.393 62.0218 163.515C61.4848 164.222 62.0338 163.592 61.9738 163.629C61.7904 163.741 61.6 163.841 61.4038 163.929C59.651 164.59 57.8286 165.051 55.9718 165.301C55.4619 165.444 55.0291 165.783 54.7671 166.243C54.5051 166.704 54.4349 167.249 54.5718 167.761C54.7223 168.266 55.0623 168.694 55.5206 168.955C55.979 169.216 56.5203 169.289 57.0318 169.161C60.3418 168.615 63.9948 168.004 65.8978 164.966C67.7488 162.013 67.5978 157.966 66.6978 154.731C64.9532 148.981 62.7585 143.378 60.1338 137.973C58.7158 134.875 57.2651 131.792 55.7818 128.724C55.5776 128.392 55.2818 128.126 54.9301 127.959C54.5784 127.791 54.1858 127.729 53.7995 127.78C53.4133 127.83 53.0499 127.991 52.7531 128.243C52.4563 128.496 52.2388 128.829 52.1268 129.202C51.6108 131.77 51.3452 134.382 51.3338 137.002C51.2178 140.239 51.2338 143.487 51.3968 146.723C51.7298 153.315 53.2678 160.246 56.7488 165.929C58.0918 168.121 61.5488 166.113 60.2028 163.91L60.2018 163.908Z" fill="#211715" stroke="black"/>
<path d="M56.5067 167.23C54.8067 167.624 51.8397 168.343 51.1167 168.921C49.5867 170.143 49.8677 173.44 51.5707 173.613C54.2662 173.992 56.9981 174.038 59.7047 173.749L56.5067 167.23Z" fill="#211715" stroke="black"/>
<path d="M55.9747 165.3C54.6157 165.616 53.2487 165.935 51.9267 166.384C51.3134 166.564 50.7246 166.82 50.1737 167.144C49.4389 167.641 48.8723 168.35 48.5487 169.176C48.2364 169.912 48.0902 170.708 48.1206 171.507C48.1511 172.306 48.3573 173.088 48.7247 173.799C49.1574 174.595 49.879 175.194 50.7407 175.474C50.9817 175.551 51.2627 175.514 51.4927 175.602C51.0847 175.447 51.1847 175.563 51.3757 175.594C51.5667 175.625 51.7757 175.651 51.9757 175.678C52.5327 175.753 53.0907 175.819 53.6517 175.861C55.6687 175.974 57.6913 175.936 59.7027 175.748C60.2331 175.748 60.7418 175.537 61.1169 175.162C61.492 174.787 61.7027 174.278 61.7027 173.748C61.7027 173.217 61.492 172.709 61.1169 172.334C60.7418 171.958 60.2331 171.748 59.7027 171.748C58.1727 171.864 56.6407 171.959 55.1027 171.928C54.2567 171.911 53.4137 171.852 52.5727 171.757C52.1857 171.713 52.5307 171.757 52.6017 171.757C52.4917 171.749 52.3747 171.723 52.2657 171.706C52.0317 171.67 51.8057 171.635 51.5657 171.606C51.4957 171.598 52.1137 171.682 51.9077 171.643C51.5367 171.573 52.3717 171.872 52.0437 171.702C51.7157 171.532 52.4117 172.077 52.1317 171.754C51.9537 171.554 52.4087 172.224 52.2317 171.878C52.196 171.789 52.1511 171.705 52.0977 171.626C52.3387 171.893 52.2607 172.062 52.2067 171.867C52.1907 171.811 52.1707 171.756 52.1557 171.7C52.1287 171.6 52.0497 171.121 52.1047 171.524C52.1597 171.927 52.1127 171.515 52.1097 171.424C52.1058 171.298 52.1085 171.172 52.1177 171.047C52.1155 170.983 52.1215 170.919 52.1357 170.857C52.1467 170.841 52.0257 171.422 52.1087 171.107C52.1407 170.985 52.1637 170.861 52.2017 170.74C52.2268 170.682 52.2472 170.623 52.2627 170.562C52.2627 170.577 52.0287 171.04 52.1717 170.783C52.2237 170.689 52.2777 170.595 52.3287 170.501C52.5147 170.153 52.0027 170.81 52.2927 170.546C52.3237 170.517 52.3587 170.482 52.3877 170.446C52.5947 170.207 52.0167 170.665 52.2077 170.576C52.361 170.509 52.5091 170.431 52.6507 170.342C52.2847 170.591 52.2507 170.506 52.4167 170.442L52.5947 170.374C52.7397 170.319 52.8867 170.268 53.0337 170.219C54.3397 169.78 55.6887 169.464 57.0337 169.152C57.5432 169.008 57.9757 168.669 58.2376 168.209C58.4996 167.748 58.57 167.203 58.4337 166.692C58.2835 166.186 57.9437 165.758 57.4852 165.497C57.0267 165.236 56.4851 165.163 55.9737 165.292L55.9747 165.3Z" fill="#211715" stroke="black"/>
<path d="M104.338 147.729C104.184 148.283 104.084 148.85 104.038 149.423C104 149.831 104.003 150.243 104.047 150.651C104.061 151.177 104.276 151.677 104.648 152.049C105.02 152.421 105.521 152.636 106.047 152.651C106.577 152.647 107.084 152.437 107.461 152.065L107.774 151.66C107.953 151.354 108.047 151.005 108.047 150.651C107.995 150.161 108.001 149.666 108.066 149.178L107.994 149.71C108.038 149.399 108.105 149.093 108.194 148.792C108.313 148.271 108.242 147.724 107.994 147.251C107.712 146.814 107.288 146.49 106.794 146.332C106.536 146.262 106.267 146.243 106.003 146.278C105.738 146.312 105.483 146.398 105.252 146.532C104.808 146.805 104.481 147.232 104.333 147.732L104.338 147.729Z" fill="#211715" stroke="black"/>
<path d="M45.5427 147.329C47.7307 147.209 49.9147 147.035 52.0947 146.809C52.6216 146.792 53.1242 146.583 53.5087 146.223C53.7883 145.943 53.9788 145.587 54.0559 145.199C54.133 144.811 54.0934 144.409 53.9421 144.043C53.7907 143.678 53.5345 143.366 53.2056 143.146C52.8768 142.926 52.4902 142.809 52.0947 142.809C49.9147 143.035 47.7307 143.208 45.5427 143.329C45.0123 143.329 44.5036 143.539 44.1285 143.914C43.7534 144.29 43.5427 144.798 43.5427 145.329C43.5427 145.859 43.7534 146.368 44.1285 146.743C44.5036 147.118 45.0123 147.329 45.5427 147.329Z" fill="#211715" stroke="black"/>
<path d="M62.9666 145.363L63.2166 145.256L62.7386 145.456C64.2144 144.837 65.7398 144.344 67.2986 143.983C67.8082 143.839 68.2406 143.5 68.5025 143.04C68.7645 142.579 68.8349 142.034 68.6986 141.523C68.5484 141.017 68.2086 140.589 67.7501 140.328C67.2916 140.067 66.75 139.994 66.2386 140.123C64.4266 140.557 62.6572 141.153 60.9516 141.904C60.4997 142.168 60.1694 142.599 60.0316 143.104C59.8931 143.624 59.965 144.177 60.2316 144.645C60.4974 145.095 60.9276 145.425 61.4316 145.564L61.9636 145.636C62.3183 145.637 62.6667 145.542 62.9726 145.363H62.9666Z" fill="#211715" stroke="black"/>
<path d="M115.132 140.455C116.76 132.571 117.182 124.485 116.383 116.475C116.012 112.456 115.393 108.463 114.531 104.521C114.173 102.487 113.434 100.539 112.352 98.7807C110.671 96.2107 108.241 94.1927 105.052 94.1017C104.525 94.1139 104.023 94.3285 103.651 94.701C103.279 95.0734 103.064 95.5751 103.052 96.1017L102.5 101.473C102.453 102.595 102.614 103.717 102.976 104.781C103.541 107.006 104.046 109.247 104.466 111.503C106.148 120.189 106.086 129.123 104.285 137.785C103.748 140.295 107.603 141.368 108.142 138.848C110.009 129.946 110.154 120.768 108.568 111.812C108.186 109.567 107.716 107.337 107.181 105.124C106.748 103.983 106.515 102.777 106.491 101.558L107.052 96.1017L105.052 98.1017C107.452 98.1707 108.885 100.594 109.846 102.502C109.895 102.602 109.946 102.709 109.988 102.813C109.896 102.59 109.876 102.543 109.929 102.672C109.974 102.79 110.029 102.907 110.064 103.029C110.285 103.799 110.453 104.587 110.626 105.369C111.115 107.569 111.524 109.786 111.854 112.022C113.287 121.108 113.091 130.376 111.275 139.394C110.737 141.905 114.592 142.978 115.132 140.458V140.455Z" fill="#211715" stroke="black"/>
<path d="M38.0018 462.751C37.8858 462.6 37.7768 462.443 37.6728 462.281C37.0462 461.167 36.6695 459.93 36.569 458.655C36.4685 457.381 36.6466 456.1 37.0908 454.902C37.9957 452.513 39.274 450.282 40.8778 448.294C44.5318 443.303 48.3941 438.473 52.4648 433.804C54.0518 431.984 55.8448 430.087 58.2178 429.64C58.0875 430.37 58.1883 431.123 58.5061 431.794C58.8239 432.465 59.3428 433.02 59.9908 433.382C61.3056 434.078 62.7822 434.412 64.2688 434.348C70.4591 434.394 76.4227 432.02 80.8888 427.734C80.8608 432.734 80.9108 434.397 80.8888 439.398C80.9539 440.616 80.8057 441.837 80.4508 443.005C79.4228 445.785 76.3748 447.124 73.9298 448.797C67.5658 453.152 64.2148 461.097 57.5468 464.968C55.1362 466.337 52.4307 467.104 49.6601 467.203C46.8896 467.302 44.1361 466.731 41.6338 465.538C40.2244 464.901 38.9814 463.947 38.0018 462.751Z" fill="#645D5C" stroke="black"/>
<path d="M132.235 462.751C132.351 462.6 132.46 462.443 132.564 462.281C133.191 461.167 133.568 459.93 133.669 458.655C133.769 457.381 133.591 456.1 133.147 454.902C132.241 452.513 130.963 450.283 129.36 448.294C125.704 443.303 121.842 438.473 117.772 433.804C116.186 431.984 114.392 430.087 112.02 429.64C112.15 430.37 112.049 431.124 111.731 431.794C111.413 432.465 110.894 433.02 110.246 433.382C108.931 434.078 107.454 434.412 105.968 434.348C99.7776 434.394 93.8142 432.021 89.3487 427.734C89.3757 432.734 89.3257 434.397 89.3487 439.398C89.2835 440.616 89.4318 441.837 89.7867 443.005C90.8147 445.785 93.8627 447.124 96.3087 448.797C102.672 453.152 106.023 461.097 112.691 464.968C115.101 466.337 117.807 467.104 120.578 467.203C123.349 467.302 126.102 466.731 128.605 465.538C130.013 464.901 131.256 463.947 132.235 462.751Z" fill="#645D5C" stroke="black"/>
<path d="M39.7278 461.742C37.9638 459.331 38.4278 456.293 39.7178 453.766C41.3767 450.841 43.2976 448.072 45.4568 445.495C47.5715 442.735 49.7578 440.03 52.0158 437.382C53.8438 435.23 55.8228 432.221 58.7478 431.568L56.2878 429.108C56.0376 430.486 56.2925 431.909 57.0058 433.116C57.7191 434.322 58.843 435.231 60.1718 435.676C62.8038 436.708 65.9518 436.437 68.6818 435.999C73.8153 435.161 78.5687 432.77 82.3018 429.148L78.8878 427.734C78.8658 431.995 79.0518 436.287 78.8668 440.544C78.7738 442.682 77.6878 443.951 75.9738 445.109C74.1757 446.216 72.4398 447.42 70.7738 448.718C64.7258 453.847 61.1408 462.575 52.9188 464.718C48.4508 465.884 42.4808 465.127 39.4188 461.335C39.0422 460.963 38.5342 460.754 38.0048 460.754C37.4754 460.754 36.9674 460.963 36.5908 461.335C36.2269 461.716 36.0239 462.222 36.0239 462.749C36.0239 463.276 36.2269 463.783 36.5908 464.164C39.7008 468.013 45.5118 469.505 50.2678 469.17C55.1973 468.766 59.8114 466.582 63.2478 463.025C66.4478 459.869 68.9258 456.066 72.1238 452.907C73.7339 451.409 75.4985 450.085 77.3878 448.96C79.3467 447.891 80.9623 446.289 82.0468 444.339C83.3068 441.618 82.9028 438.297 82.8958 435.374C82.8898 432.827 82.8788 430.279 82.8958 427.732C82.8855 427.341 82.7621 426.961 82.5406 426.639C82.319 426.317 82.0088 426.065 81.6474 425.916C81.2861 425.766 80.8891 425.725 80.5046 425.796C80.1201 425.867 79.7645 426.048 79.4808 426.318C76.85 428.854 73.6141 430.676 70.0808 431.61C68.0591 432.168 65.9637 432.412 63.8678 432.335C62.7298 432.29 59.8068 431.935 60.1488 430.17C60.2342 429.83 60.2299 429.473 60.1366 429.136C60.0432 428.798 59.8639 428.49 59.6162 428.242C59.3684 427.994 59.0606 427.815 58.7228 427.721C58.385 427.628 58.0288 427.623 57.6888 427.709C54.1108 428.509 51.7578 431.543 49.4998 434.19C46.8158 437.337 44.2218 440.558 41.7178 443.852C37.6778 449.152 31.3278 456.994 36.2778 463.759C36.5562 464.205 36.9948 464.528 37.5037 464.661C38.0127 464.795 38.5533 464.728 39.0148 464.476C39.4687 464.205 39.7978 463.766 39.9312 463.255C40.0646 462.743 39.9915 462.2 39.7278 461.742Z" fill="#211715" stroke="black"/>
<path d="M133.962 463.761C138.912 456.997 132.562 449.15 128.523 443.854C126.013 440.566 123.419 437.345 120.74 434.192C118.482 431.544 116.13 428.509 112.551 427.711C112.211 427.626 111.854 427.63 111.517 427.723C111.179 427.817 110.871 427.996 110.623 428.244C110.376 428.492 110.196 428.8 110.103 429.138C110.01 429.476 110.005 429.832 110.091 430.172C110.434 431.938 107.505 432.292 106.373 432.337C104.277 432.415 102.181 432.171 100.16 431.612C96.6264 430.678 93.3906 428.856 90.7597 426.32C90.4762 426.05 90.1206 425.869 89.7361 425.798C89.3516 425.726 88.9546 425.768 88.5933 425.918C88.232 426.067 87.9218 426.318 87.7004 426.641C87.4789 426.963 87.3557 427.343 87.3457 427.734C87.3567 430.002 87.3517 432.271 87.3457 434.539C87.2044 437.098 87.2676 439.665 87.5347 442.215C88.3467 447.297 93.5037 448.802 96.9117 451.785C100.302 454.753 102.812 458.549 105.85 461.843C109.084 465.343 113.05 468.115 117.835 468.913C123.206 469.807 130.042 468.63 133.648 464.166C134.009 463.783 134.21 463.277 134.21 462.751C134.21 462.225 134.009 461.719 133.648 461.337C133.271 460.965 132.763 460.757 132.234 460.757C131.705 460.757 131.197 460.965 130.82 461.337C128.138 464.657 123.082 465.657 119.033 465.076C114.746 464.461 111.409 461.997 108.554 458.876C105.811 455.876 103.498 452.502 100.554 449.693C99.0476 448.297 97.4038 447.057 95.6477 445.993C94.2107 445.093 92.4187 444.113 91.7187 442.471C91.3229 441.101 91.1969 439.667 91.3477 438.25C91.3477 437.067 91.3477 435.884 91.3477 434.702C91.3547 432.378 91.3617 430.055 91.3477 427.732L87.9337 429.146C91.6662 432.769 96.4198 435.161 101.554 436C104.219 436.427 107.291 436.7 109.878 435.748C111.251 435.33 112.423 434.424 113.173 433.201C113.923 431.978 114.199 430.522 113.948 429.109L111.488 431.569C114.351 432.208 116.274 435.096 118.066 437.202C120.371 439.91 122.609 442.675 124.78 445.496C126.888 448.024 128.775 450.728 130.422 453.579C131.765 456.15 132.322 459.261 130.508 461.743C130.244 462.202 130.171 462.746 130.306 463.258C130.44 463.77 130.77 464.209 131.226 464.479C131.686 464.734 132.228 464.802 132.738 464.669C133.247 464.535 133.686 464.21 133.962 463.761Z" fill="#211715" stroke="black"/>
<path d="M49.6847 49.9497C47.9622 43.4558 47.7569 36.6526 49.0847 30.0667C50.1577 24.7877 52.4577 19.8607 57.4367 17.3137C59.7297 16.1407 57.7077 12.6887 55.4177 13.8597C49.6557 16.8077 46.6047 22.5597 45.2907 28.6977C43.7166 36.0753 43.9016 43.7199 45.8307 51.0127C46.5167 53.4907 50.3767 52.4387 49.6877 49.9497H49.6847Z" fill="#211715" stroke="black"/>
<path d="M62.3367 12.4997C66.1477 7.85671 71.6597 6.26171 77.4107 5.41871C83.4966 4.51525 89.7096 5.05301 95.5497 6.98871C101.259 8.83121 106.431 12.0418 110.615 16.3407C114.49 20.4922 117.106 25.6596 118.157 31.2407C119.43 37.34 119.109 43.6646 117.225 49.6037C116.425 52.0577 120.288 53.1087 121.082 50.6677C124.865 39.0247 122.939 24.7897 115.015 15.2677C106.426 4.95371 92.1737 -0.175292 78.9637 1.22771C71.7497 1.99371 64.3017 3.82971 59.5087 9.67471C57.8877 11.6487 60.7017 14.4997 62.3367 12.4997Z" fill="#211715" stroke="black"/>
<path d="M55.7797 52.7337C55.6437 47.5387 56.3337 42.6267 59.3747 38.2847C60.1369 37.221 60.9804 36.218 61.8977 35.2847C62.5097 34.6477 63.7277 33.2677 64.6467 33.1047C65.3087 32.9867 66.3267 33.8607 66.9417 34.1737C67.8956 34.6356 68.8902 35.0082 69.9127 35.2867C72.3367 36.0097 74.7657 36.7187 77.2027 37.3937C79.6837 38.2496 82.2893 38.6889 84.9137 38.6937C87.7997 38.5267 90.5697 37.5567 93.4507 37.3937C96.5443 37.3276 99.6359 37.5989 102.671 38.2027C103.618 38.3587 104.563 38.5257 105.508 38.6887C106.355 38.7275 107.192 38.8898 107.992 39.1707C108.943 39.6877 109.326 41.9377 109.661 42.9267C110.794 46.0642 111.681 49.2853 112.314 52.5607C112.458 53.0704 112.797 53.5028 113.257 53.7647C113.718 54.0267 114.263 54.097 114.775 53.9607C115.28 53.8101 115.708 53.4701 115.969 53.0115C116.23 52.5529 116.304 52.0113 116.175 51.4997C115.569 48.3518 114.724 45.2548 113.647 42.2357C113.197 40.723 112.656 39.2392 112.025 37.7927C111.622 37.0348 111.038 36.3889 110.324 35.913C109.609 35.4372 108.788 35.1464 107.934 35.0667C104.593 34.4597 101.234 33.8667 97.8457 33.5667C96.0461 33.3578 94.23 33.3297 92.4247 33.4827C90.7407 33.6697 89.0927 34.0267 87.4307 34.3437C85.9111 34.6863 84.3473 34.7899 82.7957 34.6507C81.5796 34.4504 80.3793 34.164 79.2037 33.7937C76.4957 33.0577 73.8037 32.2707 71.1137 31.4707C70.177 31.2285 69.2711 30.8799 68.4137 30.4317C67.1917 29.7717 66.1207 28.9527 64.6537 29.0437C61.7347 29.2237 59.1407 32.2117 57.4197 34.3077C55.3293 36.7765 53.7614 39.6436 52.8107 42.7357C51.9505 45.9954 51.6027 49.3691 51.7797 52.7357C51.8477 55.3047 55.8477 55.3147 55.7797 52.7357V52.7337Z" fill="#211715" stroke="black"/>
<path d="M110.43 67.7527C110.312 69.2965 109.978 70.8161 109.438 72.2667C109.367 72.4797 109.293 72.6927 109.221 72.9047C109.209 72.9397 108.998 73.4957 109.139 73.1467C109.28 72.7977 109.047 73.3467 109.02 73.3977C108.953 73.5391 108.886 73.6791 108.82 73.8177C107.898 75.6117 106.831 77.3271 105.629 78.9467C102.806 82.8257 99.0126 86.8877 94.2666 88.2637C91.7996 88.9797 92.8496 92.8407 95.3306 92.1207C101.059 90.4597 105.483 85.8507 108.923 81.1837C111.834 77.2347 114.223 72.7677 114.434 67.7527C114.54 65.1777 110.539 65.1827 110.434 67.7527H110.43Z" fill="#211715" stroke="black"/>
<path d="M52.3458 67.9597C53.3014 73.5283 55.61 78.7771 59.0688 83.2447C62.7028 87.7977 67.7548 91.6547 73.6278 92.5727C74.139 92.6973 74.6786 92.6217 75.1359 92.3614C75.5933 92.1012 75.9338 91.6759 76.0878 91.1727C76.2246 90.6609 76.1544 90.1159 75.8924 89.6555C75.6304 89.1951 75.1976 88.8564 74.6878 88.7127C64.2118 87.0777 58.0068 76.4927 56.2018 66.8997C56.0574 66.3903 55.7186 65.958 55.2584 65.6961C54.7982 65.4342 54.2535 65.3637 53.7418 65.4997C53.2359 65.6498 52.8076 65.9898 52.5467 66.4485C52.2857 66.9072 52.2123 67.4491 52.3418 67.9607L52.3458 67.9597Z" fill="#211715" stroke="black"/>
<path d="M115.634 53.4557C115.899 53.2455 116.204 53.0929 116.532 53.0077C116.859 52.9225 117.2 52.9066 117.534 52.961C117.868 53.0154 118.186 53.139 118.47 53.3237C118.753 53.5084 118.994 53.7502 119.179 54.0337C119.514 54.8454 119.659 55.7233 119.602 56.5997C119.632 57.6248 119.559 58.6503 119.383 59.6607C119.033 61.6807 118.3 63.6153 117.225 65.3607C116.477 66.5497 115.245 68.2097 113.782 67.8197C111.293 67.1557 110.23 71.0137 112.719 71.6767C115.992 72.5497 118.554 70.4377 120.338 67.8927C122.067 65.2963 123.14 62.3185 123.463 59.2157C123.814 56.3387 123.816 52.6817 121.485 50.5887C120.281 49.5404 118.737 48.966 117.14 48.9728C115.544 48.9796 114.005 49.5672 112.81 50.6257C112.438 51.0027 112.23 51.5106 112.23 52.0397C112.23 52.5688 112.438 53.0767 112.81 53.4537C113.19 53.8184 113.697 54.0221 114.224 54.0221C114.751 54.0221 115.257 53.8184 115.638 53.4537L115.634 53.4557Z" fill="#211715" stroke="black"/>
<path d="M54.4018 50.6277C53.2064 49.5698 51.667 48.9828 50.0708 48.976C48.4745 48.9692 46.9302 49.5431 45.7258 50.5907C43.3348 52.7367 43.3998 56.5107 43.7788 59.4437C44.1314 62.5704 45.2566 65.5602 47.0528 68.1436C48.8958 70.6706 51.6468 72.8276 54.9338 72.1036C57.4468 71.5496 56.3838 67.6927 53.8708 68.2467C52.4058 68.5687 50.8588 66.6817 50.1528 65.6207C49.0122 63.858 48.2324 61.8866 47.8588 59.8207C47.6743 58.8269 47.5892 57.8173 47.6048 56.8067C47.5267 55.8615 47.6719 54.9113 48.0288 54.0327C48.2131 53.7492 48.4545 53.5074 48.7376 53.3227C49.0208 53.138 49.3394 53.0145 49.673 52.96C50.0067 52.9056 50.348 52.9215 50.6752 53.0067C51.0023 53.0919 51.3081 53.2444 51.5728 53.4547C51.9546 53.817 52.4609 54.0189 52.9873 54.0189C53.5137 54.0189 54.02 53.817 54.4018 53.4547C54.7729 53.0776 54.9809 52.5697 54.9809 52.0407C54.9809 51.5116 54.7729 51.0047 54.4018 50.6277Z" fill="#211715" stroke="black"/>
<path d="M79.0747 53.3997C79.0747 53.4727 79.0827 53.5457 79.0837 53.6187L83.0117 53.0877C82.5047 50.3427 80.3117 49.1617 77.8117 48.4677C75.3387 47.8327 72.7802 47.5963 70.2327 47.7677C67.4868 47.8025 64.7713 48.3474 62.2247 49.3747C59.8107 50.4877 59.0077 52.8117 59.0167 55.3177C58.9854 57.5107 59.5211 59.6746 60.5717 61.5997C61.7799 63.4267 63.6021 64.7608 65.7087 65.3607C69.7154 66.6697 74.0548 66.5281 77.9677 64.9607C82.8087 62.9757 83.6907 57.4997 83.0017 52.8677C82.8584 52.3576 82.5198 51.9245 82.0593 51.6624C81.5988 51.4003 81.0534 51.3304 80.5417 51.4677C80.037 51.6198 79.6102 51.9602 79.3496 52.4183C79.0889 52.8764 79.0145 53.4172 79.1417 53.9287C79.4737 56.1617 79.3147 59.3757 77.3267 60.8057C76.1331 61.5198 74.7889 61.9445 73.4017 62.0457C71.9905 62.247 70.5601 62.2769 69.1417 62.1347C67.5785 61.9528 66.0862 61.3809 64.8017 60.4717C63.8592 59.5679 63.278 58.3518 63.1667 57.0507C62.9887 56.0947 62.6917 54.1857 63.3757 53.3707C63.964 52.8944 64.6757 52.5951 65.4277 52.5077C66.4569 52.2325 67.5046 52.032 68.5627 51.9077C70.6548 51.645 72.7719 51.6504 74.8627 51.9237C75.904 52.0627 76.9254 52.3238 77.9057 52.7017C78.2148 52.834 78.5153 52.9853 78.8057 53.1547C79.0477 53.2907 79.0467 53.5827 79.1517 54.1547C79.5667 56.3997 83.1007 55.8397 83.0807 53.6227C83.0807 53.5497 83.0727 53.4767 83.0717 53.4037C83.0367 50.8277 79.0367 50.8207 79.0747 53.3997Z" fill="#211715" stroke="black"/>
<path d="M85.8656 53.3997C85.8656 53.4727 85.8566 53.5456 85.8566 53.6186C85.8366 55.8126 89.3656 56.4186 89.7846 54.1506C89.8236 53.9436 89.8796 53.7366 89.9146 53.5296C89.9906 53.0826 90.0526 53.1876 89.9346 53.3456C90.144 53.123 90.4021 52.9519 90.6886 52.8456C91.4951 52.4923 92.3407 52.2362 93.2076 52.0826C95.0805 51.736 96.9907 51.6351 98.8896 51.7826C100.884 51.8386 102.857 52.2061 104.738 52.8717C105 52.935 105.24 53.0703 105.43 53.2623C105.62 53.4543 105.752 53.6955 105.813 53.9586C105.942 54.6813 105.967 55.4188 105.888 56.1486C105.85 57.5456 105.405 58.9011 104.608 60.0486C103.594 61.0302 102.302 61.6734 100.908 61.8896C99.5903 62.1945 98.2316 62.279 96.8866 62.1396C95.3035 62.0972 93.7404 61.7749 92.2696 61.1876C89.7256 60.0636 89.4206 56.4216 89.7906 53.9286C89.9145 53.4173 89.8386 52.8779 89.5785 52.4206C89.3183 51.9633 88.8935 51.6225 88.3906 51.4676C87.8789 51.3308 87.3338 51.401 86.8734 51.663C86.413 51.925 86.0743 52.3578 85.9306 52.8676C85.3306 56.9146 85.8206 61.6776 89.4786 64.1886C91.3497 65.3091 93.4683 65.9508 95.6466 66.0566C97.6561 66.3106 99.6937 66.2319 101.678 65.8236C103.83 65.4052 105.82 64.3887 107.421 62.8906C108.853 61.1374 109.695 58.9767 109.828 56.7166C110.074 54.4966 109.914 51.9346 108.163 50.3316C106.273 48.6016 103.177 48.2456 100.742 47.9486C97.82 47.559 94.8537 47.6631 91.9666 48.2566C89.1996 48.8656 86.4866 50.0306 85.9216 53.0876L89.8506 53.6186C89.8506 53.5456 89.8586 53.4727 89.8596 53.3997C89.9016 50.8247 85.9016 50.8237 85.8656 53.3997Z" fill="#211715" stroke="black"/>
<path d="M82.2796 56.1998C82.7031 56.0947 83.1321 56.0129 83.5646 55.9548L83.0336 56.0258C84.0063 55.9039 84.9906 55.9066 85.9626 56.0338L85.4306 55.9628C85.9711 56.0383 86.5057 56.1512 87.0306 56.3008C87.5421 56.4417 88.0886 56.3737 88.5499 56.1118C89.0113 55.8498 89.3496 55.4152 89.4906 54.9038C89.6316 54.3923 89.5636 53.8458 89.3016 53.3844C89.0396 52.9231 88.6051 52.5847 88.0936 52.4438C85.8488 51.812 83.4778 51.7775 81.2156 52.3438C80.7065 52.4886 80.2745 52.8275 80.0127 53.2876C79.7509 53.7476 79.6801 54.2921 79.8156 54.8038C79.9651 55.3099 80.3048 55.7384 80.7635 55.9995C81.2222 56.2605 81.7641 56.3337 82.2756 56.2038L82.2796 56.1998Z" fill="#211715" stroke="black"/>
<path d="M61.5287 51.7308C60.5371 51.5025 59.5209 51.399 58.5037 51.4228C57.9751 51.432 57.4698 51.6414 57.0897 52.0088C56.7326 52.3955 56.5249 52.8968 56.5037 53.4228C56.5037 53.9532 56.7144 54.4619 57.0895 54.837C57.4645 55.2121 57.9732 55.4228 58.5037 55.4228C59.051 55.406 59.5988 55.4335 60.1417 55.5048L59.6107 55.4338C59.8977 55.4728 60.1827 55.5248 60.4657 55.5878C60.9861 55.7191 61.537 55.6476 62.0067 55.3878C62.4425 55.106 62.7672 54.682 62.9257 54.1878C62.9955 53.9343 63.0146 53.6696 62.982 53.4087C62.9494 53.1479 62.8657 52.896 62.7357 52.6675C62.6056 52.439 62.4318 52.2384 62.2242 52.0772C62.0166 51.9159 61.7792 51.7972 61.5257 51.7278L61.5287 51.7308Z" fill="#211715" stroke="black"/>
<path d="M108.508 55.5877C108.791 55.5247 109.076 55.4727 109.363 55.4337L108.832 55.5047C109.374 55.4334 109.922 55.406 110.47 55.4227C110.996 55.4086 111.496 55.1933 111.868 54.8213C112.24 54.4492 112.455 53.9487 112.47 53.4227C112.468 52.8927 112.257 52.3848 111.884 52.0087C111.501 51.6448 110.997 51.436 110.47 51.4227C110.043 51.4088 109.616 51.4225 109.192 51.4637C108.604 51.5166 108.021 51.6057 107.445 51.7307C107.065 51.8287 106.724 52.0405 106.468 52.3378C106.211 52.635 106.052 53.0035 106.012 53.3937C105.951 53.6588 105.964 53.9351 106.048 54.1937C106.187 54.6975 106.517 55.1276 106.967 55.3937L107.445 55.5937C107.793 55.6887 108.16 55.6887 108.508 55.5937V55.5877Z" fill="#211715" stroke="black"/>
<path d="M77.3107 76.3667C79.1467 78.1667 82.0217 78.7197 84.4947 78.7197C86.9677 78.7197 89.8427 78.1717 91.6827 76.3727C91.8684 76.187 92.0157 75.9665 92.1161 75.7238C92.2166 75.4811 92.2683 75.221 92.2682 74.9584C92.2682 74.6957 92.2164 74.4357 92.1159 74.193C92.0153 73.9504 91.8679 73.7299 91.6822 73.5442C91.4964 73.3585 91.2759 73.2113 91.0333 73.1108C90.7906 73.0103 90.5305 72.9586 90.2678 72.9587C90.0052 72.9587 89.7451 73.0105 89.5025 73.1111C89.2598 73.2116 89.0394 73.359 88.8537 73.5447C88.7767 73.6197 88.4337 73.8977 88.7467 73.6567C89.0597 73.4157 88.6167 73.7367 88.5167 73.7987C88.3667 73.8907 88.2167 73.9747 88.0557 74.0537C87.9438 74.0921 87.8364 74.1427 87.7357 74.2047C87.8357 74.0907 88.1247 74.0567 87.7957 74.1707C87.2956 74.3487 86.7828 74.4888 86.2617 74.5897C86.2107 74.5997 85.6457 74.6807 86.0927 74.6267C85.9357 74.6457 85.7787 74.6607 85.6217 74.6737C85.247 74.7044 84.8714 74.7197 84.4947 74.7197C84.1507 74.7197 83.8067 74.7077 83.4627 74.6807C83.2737 74.6667 83.0837 74.6477 82.8947 74.6247C83.1807 74.6597 82.9807 74.6337 82.8107 74.6027C82.2816 74.5097 81.7614 74.3719 81.2557 74.1907C81.1927 74.1677 81.1307 74.1447 81.0687 74.1197C80.9257 74.0627 80.9867 74.0897 81.2537 74.1997C81.1705 74.1459 81.0804 74.1039 80.9857 74.0747C80.8107 73.9887 80.6397 73.8957 80.4747 73.7937C80.3517 73.7177 80.2327 73.6057 80.1047 73.5427C80.6247 73.7977 80.3327 73.7287 80.1387 73.5427C79.7615 73.1784 79.2563 72.9768 78.7319 72.9814C78.2075 72.9859 77.7059 73.1963 77.3351 73.5671C76.9642 73.9379 76.7539 74.4395 76.7493 74.9639C76.7448 75.4883 76.9464 75.9935 77.3107 76.3707V76.3667Z" fill="#211715" stroke="black"/>
<path d="M83.1877 63.3997C83.4584 64.3776 83.6747 65.3698 83.8357 66.3717L83.7647 65.8407C83.7838 65.9765 83.7875 66.1141 83.7757 66.2507L83.8467 65.7187C83.8372 65.7816 83.8222 65.8435 83.8017 65.9037L84.0017 65.4257C83.9836 65.4672 83.9618 65.5071 83.9367 65.5447L84.2497 65.1397C84.2196 65.1762 84.1862 65.2097 84.1497 65.2397L84.5547 64.9267C84.4789 64.9733 84.4001 65.0148 84.3187 65.0507L84.7967 64.8507C84.6685 64.9051 84.5342 64.9437 84.3967 64.9657L84.9287 64.8947C84.8048 64.9097 84.6796 64.9097 84.5557 64.8947L85.0877 64.9657C84.9477 64.9467 84.8097 64.9127 84.6687 64.8937C84.1476 64.7747 83.6011 64.8456 83.1277 65.0937C82.6698 65.3615 82.337 65.8001 82.2025 66.3132C82.0681 66.8263 82.1429 67.3718 82.4107 67.8297C82.5378 68.0565 82.7097 68.255 82.916 68.4132C83.1223 68.5713 83.3587 68.6858 83.6107 68.7497C83.9727 68.7987 84.3237 68.8887 84.6917 68.9057C85.2653 68.908 85.8309 68.7707 86.3397 68.5057C86.6692 68.3505 86.9606 68.1246 87.193 67.8441C87.4255 67.5636 87.5933 67.2354 87.6847 66.8827C87.8063 66.322 87.8015 65.7413 87.6707 65.1827C87.5097 64.2247 87.2887 63.2757 87.0427 62.3367C86.9732 62.0832 86.8545 61.8458 86.6933 61.6382C86.532 61.4305 86.3314 61.2567 86.1029 61.1267C85.8744 60.9967 85.6226 60.913 85.3617 60.8804C85.1009 60.8478 84.8361 60.8669 84.5827 60.9367C84.0805 61.0771 83.6523 61.4064 83.3877 61.8557C83.1264 62.3249 83.0548 62.8764 83.1877 63.3967V63.3997Z" fill="#211715" stroke="black"/>
<path d="M68.6157 54.9887C68.1497 56.5027 68.4507 59.9887 71.3157 60.2827C75.1057 60.2617 75.3097 56.0517 74.0347 54.0717C72.9937 52.4507 69.9227 51.7747 68.6157 54.9887Z" fill="#211715" stroke="black"/>
<path d="M99.8556 55.0047C100.321 56.5187 100.016 60.0047 97.1476 60.2957C93.3566 60.2707 93.1576 56.0607 94.4346 54.0817C95.4796 52.4617 98.5516 51.7897 99.8556 55.0047Z" fill="#211715" stroke="black"/>
</svg>
